<svg width="144" height="100" fill="none" xmlns="http://www.w3.org/2000/svg"><rect x="1.25" y="1.25" width="141.5" height="97.5" rx="3.75" fill="#F8FBFF" stroke="#CDD0DF" stroke-width="1.5"/><path d="M131 9.525L130.475 9 128 11.475 125.525 9l-.525.525L127.475 12 125 14.475l.525.525L128 12.525 130.475 15l.525-.525L128.525 12 131 9.525z" fill="#6B709B"/><rect x="54" y="56" width="9" height="4" rx="1" fill="#6B719B"/><rect x="41" y="56" width="9" height="4" rx="1" fill="#6B719B"/><rect x="28" y="56" width="9" height="4" rx="1" fill="#6B719B"/><rect x="67" y="56" width="9" height="4" rx="1" fill="#6B719B"/><rect x="80" y="56" width="9" height="4" rx="1" fill="#6B719B"/><rect x="93" y="56" width="9" height="4" rx="1" fill="#6B719B"/><rect x="106" y="56" width="9" height="4" rx="1" fill="#6B719B"/><rect opacity="0.5" x="37" y="37" width="70" height="7" rx="1" fill="#CDD0DF"/><path d="M76.863 43.902L74.91 41.95a.554.554 0 00-.332-.136h-.312c.527-.684.859-1.544.859-2.5 0-2.227-1.836-4.063-4.063-4.063A4.072 4.072 0 0067 39.313a4.06 4.06 0 004.063 4.062c.937 0 1.796-.313 2.5-.86v.333c0 .117.039.234.136.332l1.934 1.933c.195.196.488.196.664 0l.547-.547a.466.466 0 00.02-.664zm-5.8-2.09a2.492 2.492 0 01-2.5-2.5c0-1.367 1.113-2.5 2.5-2.5 1.367 0 2.5 1.133 2.5 2.5 0 1.387-1.133 2.5-2.5 2.5z" fill="#6B709B"/></svg>