<svg width="76" height="140" fill="none" xmlns="http://www.w3.org/2000/svg"><rect x="1.25" y="1.25" width="73.5" height="137.5" rx="3.75" fill="#E3E9F2" stroke="#CDD0DF" stroke-width="1.5"/><rect x="2" y="2" width="64" height="136" rx="3" fill="#F8FBFF"/><rect x="7" y="115" width="37" height="2" rx="1" fill="#CDD0DF"/><rect x="7" y="127" width="37" height="2" rx="1" fill="#CDD0DF"/><rect x="7" y="111" width="9" height="2" rx="1" fill="#6B709B"/><rect x="7" y="123" width="9" height="2" rx="1" fill="#6B709B"/><rect opacity="0.5" x="8" y="26" width="34" height="7" rx="1" fill="#CDD0DF"/><path d="M18.863 32.652L16.91 30.7a.554.554 0 00-.332-.137h-.312c.527-.683.859-1.543.859-2.5 0-2.226-1.836-4.062-4.063-4.062A4.072 4.072 0 009 28.063a4.06 4.06 0 004.063 4.062c.937 0 1.796-.313 2.5-.86v.333c0 .117.039.234.136.332l1.934 1.933c.195.196.488.196.664 0l.547-.547a.466.466 0 00.02-.664zm-5.8-2.09a2.492 2.492 0 01-2.5-2.5c0-1.367 1.113-2.5 2.5-2.5 1.367 0 2.5 1.133 2.5 2.5 0 1.387-1.133 2.5-2.5 2.5z" fill="#6B709B"/><rect x="47" y="26" width="14" height="7" rx="1" fill="#6B719B"/><rect opacity="0.5" x="7" y="7" width="20" height="8" rx="1" fill="#6B719B"/><path d="M59 8.525L58.475 8 56 10.475 53.525 8 53 8.525 55.475 11 53 13.475l.525.525L56 11.525 58.475 14l.525-.525L56.525 11 59 8.525z" fill="#6B709B"/><rect x="7" y="50" width="21.25" height="4" rx="1" fill="#6B719B"/><rect x="7" y="60" width="17" height="4" rx="1" fill="#6B719B"/><rect x="7" y="70" width="19.8333" height="4" rx="1" fill="#6B719B"/><rect x="7" y="80" width="14.1667" height="4" rx="1" fill="#6B719B"/></svg>