<svg width="76" height="140" fill="none" xmlns="http://www.w3.org/2000/svg"><rect x="1.25" y="1.25" width="73.5" height="137.5" rx="3.75" fill="#E3E9F2" stroke="#CDD0DF" stroke-width="1.5"/><rect x="2" y="2" width="64" height="136" rx="3" fill="#F8FBFF"/><path opacity="0.7" d="M60 125H7" stroke="#CDD0DF" stroke-width="0.5"/><rect x="22" y="129" width="4" height="4" rx="1" fill="#6B709B"/><rect x="29" y="129" width="4" height="4" rx="1" fill="#6B709B"/><rect x="36" y="129" width="4" height="4" rx="1" fill="#6B709B"/><rect x="43" y="129" width="4" height="4" rx="1" fill="#6B709B"/><rect opacity="0.5" x="24" y="7" width="20" height="8" rx="1" fill="#6B719B"/><path d="M59 8.525L58.475 8 56 10.475 53.525 8 53 8.525 55.475 11 53 13.475l.525.525L56 11.525 58.475 14l.525-.525L56.525 11 59 8.525z" fill="#6B709B"/><rect x="23" y="30" width="21.25" height="4" rx="1" fill="#6B719B"/><path opacity="0.7" d="M60 41H7M60 59H7M60 77H7M60 95H7" stroke="#CDD0DF" stroke-width="0.5"/><rect x="25" y="48" width="17" height="4" rx="1" fill="#6B719B"/><rect x="24" y="66" width="19.8333" height="4" rx="1" fill="#6B719B"/><rect x="26" y="84" width="14.1667" height="4" rx="1" fill="#6B719B"/><rect x="24" y="102" width="18" height="4" rx="1" fill="#6B719B"/></svg>