<svg width="723" height="188" fill="none" xmlns="http://www.w3.org/2000/svg"><path d="M79.672 7a18.154 18.154 0 00-17.539 13.466L33.687 126.9l35.04 9.385L97.208 29.847C100.294 18.318 91.606 7 79.672 7z" fill="url(#paint0_linear)"/><path d="M149.038 181.935a18.155 18.155 0 0017.539-13.467l28.446-106.433-35.039-9.44-28.485 106.494c-3.084 11.529 5.605 22.846 17.539 22.846z" fill="url(#paint1_linear)"/><path d="M186.146 7a18.132 18.132 0 00-17.512 13.433l-19.238 71.702a28.657 28.657 0 01-10.245 15.363 28.572 28.572 0 01-17.476 5.907H24.077A18.187 18.187 0 006.511 126.88c-3.1 11.553 5.605 22.9 17.566 22.9h97.653a64.96 64.96 0 0039.578-13.514 65.155 65.155 0 0023.183-34.857l19.17-71.587C206.745 18.307 198.067 7 186.146 7z" fill="url(#paint2_linear)"/><path d="M222.504 61.797c3.129-11.55-5.569-22.92-17.537-22.92h-98.116A65.155 65.155 0 0067.222 52.39a65.382 65.382 0 00-23.276 34.864l-19.228 71.831C21.622 170.647 30.336 182 42.306 182a18.207 18.207 0 0017.592-13.515l19.2-71.98a28.872 28.872 0 0110.308-15.36 28.772 28.772 0 0117.501-5.93h98.06a18.17 18.17 0 0017.537-13.418z" fill="url(#paint3_linear)"/><g clip-path="url(#clip0)" fill="#0A2E2C"><path d="M360.165.179h25.173v186.92h-25.173v-82.576h-77.496v82.576h-25.173V.179h25.173v79.158h77.496V.179zM461.396 55.41c11.508 0 21.397 1.98 29.489 5.938 8.091 3.957 14.564 9.355 19.419 16.37 4.855 7.017 8.271 15.293 10.069 25.007 1.798 9.535 2.338 19.97 1.439 31.304h-97.815c0 6.296.899 11.334 2.876 15.292 1.978 3.958 4.675 7.016 8.092 9.175 3.416 2.159 7.192 3.598 11.507 4.497 4.316.72 8.811 1.26 13.666 1.26 3.416 0 6.832-.18 10.429-.36 3.596-.18 6.832-.9 9.889-1.799 3.057-.9 5.754-2.519 8.091-4.498 2.338-1.979 4.136-4.677 4.855-8.095h25.712c-1.798 7.196-4.495 13.133-8.091 17.99-3.596 4.857-8.091 8.815-13.126 11.874-5.034 3.058-10.788 5.217-17.081 6.656-6.294 1.439-13.126 2.159-20.139 2.159-21.577 0-37.22-5.577-47.109-16.911-9.89-11.154-14.744-27.705-14.744-49.474 0-9.715 1.258-18.53 3.955-26.626 2.518-8.095 6.473-15.111 11.688-21.048 5.214-5.937 11.687-10.435 19.419-13.853 7.552-3.238 16.722-4.857 27.51-4.857zm35.782 55.051c-.18-2.158-.539-5.037-1.259-8.635-.719-3.598-2.337-7.196-4.675-10.614-2.337-3.419-5.933-6.477-10.608-8.996-4.675-2.518-10.968-3.778-19.06-3.778-7.372 0-13.305 1.08-18.16 3.239-4.855 2.158-8.631 4.857-11.688 8.095-2.877 3.239-5.034 6.657-6.113 10.435-1.079 3.778-1.798 7.196-1.798 10.434h73.361v-.18zM535.836 0h25.174v187.1h-25.174V0zM682.56 120.896l39.557 66.385h-28.409l-25.173-42.458h-.18l-25.173 42.458h-28.41l39.198-66.385v-.36l-39.198-66.025h28.41l25.173 42.278h.18l25.173-42.278h28.409l-39.557 66.025v.36zM605.242 51.813h-26.791V187.1h26.791V51.813zM603.444 9.715c-1.259-1.26-2.877-2.16-4.855-2.519-1.798-.36-4.136-.54-6.653-.54-2.517 0-4.855.18-6.833.54-1.977.36-3.775 1.26-5.034 2.519-1.259 1.259-2.158 3.058-2.877 5.217-.539 2.159-.899 5.037-.899 8.455 0 3.958.36 7.017 1.079 9.355.719 2.34 1.798 4.138 3.236 5.398 1.439 1.259 3.057 1.978 5.035 2.338 1.798.36 3.956.36 6.113.36 2.158 0 4.316-.18 6.114-.36 1.978-.36 3.596-1.08 5.034-2.339 1.259-1.259 2.338-3.058 3.057-5.397.719-2.338 1.079-5.397 1.079-9.355 0-3.418-.36-6.296-.899-8.455a9.701 9.701 0 00-2.697-5.217z"/></g><defs><linearGradient id="paint0_linear" x1="57.319" y1="140.902" x2="108.599" y2="27.24" gradientUnits="userSpaceOnUse"><stop offset=".703" stop-color="#097D73"/><stop offset=".969" stop-color="#4DA59D"/></linearGradient><linearGradient id="paint1_linear" x1="149.02" y1="186.554" x2="200.337" y2="72.859" gradientUnits="userSpaceOnUse"><stop stop-color="#3EC2B6"/><stop offset=".583" stop-color="#18786F"/></linearGradient><linearGradient id="paint2_linear" x1=".368" y1="129.955" x2="51.151" y2="-34.514" gradientUnits="userSpaceOnUse"><stop stop-color="#0F5F57"/><stop offset=".281" stop-color="#50B5AB"/><stop offset=".651" stop-color="#489C95"/><stop offset="1" stop-color="#3ECCBF"/></linearGradient><linearGradient id="paint3_linear" x1="29.98" y1="57.276" x2="247.462" y2="157.025" gradientUnits="userSpaceOnUse"><stop stop-color="#FCFCFC"/><stop offset=".375" stop-color="#3DA69C"/><stop offset=".974" stop-color="#62EADD"/></linearGradient><clipPath id="clip0"><path fill="#fff" transform="translate(257.496)" d="M0 0h464.621v188H0z"/></clipPath></defs></svg>