<svg width="144" height="100" fill="none" xmlns="http://www.w3.org/2000/svg"><rect x="1.25" y="1.25" width="141.5" height="97.5" rx="3.75" fill="#F8FBFF" stroke="#CDD0DF" stroke-width="1.5"/><path d="M2 5c0-1.65685 1.34315-3 3-3h134c1.657 0 3 1.34315 3 3v21H2V5z" fill="#EBF1F9"/><path fill="#6B719B" d="M120 12h4v4h-4zM127 12h4v4h-4zM134 12h4v4h-4z"/><rect opacity=".5" x="6" y="10" width="14" height="8" rx="1" fill="#6B719B"/><rect x="47" y="12" width="10" height="4" rx="1" fill="#6B719B"/><rect x="60" y="12" width="10" height="4" rx="1" fill="#6B719B"/><rect x="73" y="12" width="10" height="4" rx="1" fill="#6B719B"/><rect x="86" y="12" width="10" height="4" rx="1" fill="#6B719B"/></svg>