<svg width="144" height="100" fill="none" xmlns="http://www.w3.org/2000/svg"><rect x="1.25" y="1.25" width="141.5" height="97.5" rx="3.75" fill="#F8FBFF" stroke="#CDD0DF" stroke-width="1.5"/><path d="M2 5c0-1.65685 1.34315-3 3-3h134c1.657 0 3 1.34315 3 3v21H2V5z" fill="#EBF1F9"/><path d="M121.891 16.9219l-1.563-1.5625c-.078-.0625-.172-.1094-.266-.1094h-.25c.422-.5469.688-1.2344.688-2 0-1.7812-1.469-3.25-3.25-3.25-1.797 0-3.25 1.4688-3.25 3.25 0 1.7969 1.453 3.25 3.25 3.25.75 0 1.438-.25 2-.6875v.2656c0 .0938.031.1875.109.2657l1.547 1.5468c.156.1563.391.1563.532 0l.437-.4375c.156-.1406.156-.375.016-.5312zM117.25 15.25c-1.109 0-2-.8906-2-2 0-1.0938.891-2 2-2 1.094 0 2 .9062 2 2 0 1.1094-.906 2-2 2z" fill="#6B719B"/><rect x="127" y="12" width="9" height="4" rx="1" fill="#6B719B"/><rect opacity=".5" x="6" y="10" width="14" height="8" rx="1" fill="#6B719B"/><rect x="26" y="12" width="9" height="4" rx="1" fill="#6B719B"/><rect x="38" y="12" width="9" height="4" rx="1" fill="#6B719B"/><rect x="50" y="12" width="9" height="4" rx="1" fill="#6B719B"/><rect x="62" y="12" width="9" height="4" rx="1" fill="#6B719B"/></svg>