<svg width="144" height="100" fill="none" xmlns="http://www.w3.org/2000/svg"><rect x="1.25" y="1.25" width="141.5" height="97.5" rx="3.75" fill="#F0F0F0" stroke="#B2B4B8" stroke-width="1.5"/><path d="M2 5a3 3 0 013-3h134a3 3 0 013 3v21H2V5z" fill="#F9F8F8"/><path fill="#8D9097" d="M106 12h4v4h-4zM113 12h4v4h-4zM120 12h4v4h-4z"/><rect x="20" y="10" width="14" height="8" rx="1" fill="#B2B4B8"/><rect x="40" y="12" width="9" height="4" rx="1" fill="#8D9097"/><rect x="52" y="12" width="9" height="4" rx="1" fill="#8D9097"/><rect x="64" y="12" width="9" height="4" rx="1" fill="#8D9097"/><rect x="76" y="12" width="9" height="4" rx="1" fill="#8D9097"/></svg>