<?xml version="1.0" encoding="utf-8"?>
<!-- Generator: Adobe Illustrator 22.0.1, SVG Export Plug-In . SVG Version: 6.00 Build 0)  -->
<svg version="1.1" id="Layer_1" xmlns="http://www.w3.org/2000/svg" xmlns:xlink="http://www.w3.org/1999/xlink" x="0px" y="0px"
	 viewBox="0 0 207.6 28.7" style="enable-background:new 0 0 207.6 28.7;" xml:space="preserve">
<style type="text/css">
	.st0{fill:#FFFFFF;}
	.st1{filter:url(#Adobe_OpacityMaskFilter);}
	.st2{mask:url(#mask-2_2_);fill:#FFFFFF;}
	.st3{filter:url(#Adobe_OpacityMaskFilter_1_);}
	.st4{mask:url(#mask-4_20_);fill:#FFFFFF;}
	.st5{filter:url(#Adobe_OpacityMaskFilter_2_);}
	.st6{mask:url(#mask-4_19_);fill:#FFFFFF;}
	.st7{filter:url(#Adobe_OpacityMaskFilter_3_);}
	.st8{mask:url(#mask-4_18_);fill:#FFFFFF;}
	.st9{filter:url(#Adobe_OpacityMaskFilter_4_);}
	.st10{mask:url(#mask-4_17_);fill:#FFFFFF;}
	.st11{filter:url(#Adobe_OpacityMaskFilter_5_);}
	.st12{mask:url(#mask-4_16_);fill:#FFFFFF;}
	.st13{filter:url(#Adobe_OpacityMaskFilter_6_);}
	.st14{mask:url(#mask-4_15_);fill:#FFFFFF;}
	.st15{filter:url(#Adobe_OpacityMaskFilter_7_);}
	.st16{mask:url(#mask-4_2_);fill:#FFFFFF;}
	.st17{filter:url(#Adobe_OpacityMaskFilter_8_);}
	.st18{mask:url(#mask-4_1_);fill:#FFFFFF;}
	.st19{filter:url(#Adobe_OpacityMaskFilter_9_);}
	.st20{mask:url(#mask-4_12_);fill:#FFFFFF;}
	.st21{filter:url(#Adobe_OpacityMaskFilter_10_);}
	.st22{mask:url(#mask-4_11_);fill:#FFFFFF;}
</style>
<g id="Page-1_1_">
	<g id="Basic-Copy-7" transform="translate(-19.000000, -166.000000)">
		<g id="Page-1" transform="translate(19.074448, 165.838309)">
			<path id="Fill-1" class="st0" d="M8.9,17.5c0-0.9,0.3-4,5.4-6.6c5.1-2.5,5.6-4.5,5.6-4.5c-0.5,2.8-1.4,3.6-6.2,6.2
				C9,15.1,8.9,17.5,8.9,17.5z"/>
			<path id="Fill-3" class="st0" d="M8.9,22.8c0,0,0.1-2.5,4.7-4.9c4.8-2.6,5.7-3.4,6.2-6.2c0,0-0.5,2-5.6,4.5
				C9.2,18.8,8.9,21.9,8.9,22.8"/>
			<g id="Group-7" transform="translate(0.000000, 0.187521)">
				<g id="Clip-6">
				</g>
				<defs>
					<filter id="Adobe_OpacityMaskFilter" filterUnits="userSpaceOnUse" x="1" y="1.1" width="27.2" height="27.2">
						<feColorMatrix  type="matrix" values="1 0 0 0 0  0 1 0 0 0  0 0 1 0 0  0 0 0 1 0"/>
					</filter>
				</defs>
				<mask maskUnits="userSpaceOnUse" x="1" y="1.1" width="27.2" height="27.2" id="mask-2_2_">
					<g class="st1">
						<polygon id="path-1_2_" class="st0" points="1,1.1 1,28.3 28.2,28.3 28.2,1.1 						"/>
					</g>
				</mask>
				<path id="Fill-5" class="st2" d="M14.6,2.5C7.9,2.5,2.4,8,2.4,14.7C2.4,21.5,7.9,27,14.6,27c6.7,0,12.2-5.5,12.2-12.2
					C26.8,8,21.3,2.5,14.6,2.5 M14.6,28.3C7.1,28.3,1,22.2,1,14.7C1,7.2,7.1,1.1,14.6,1.1s13.6,6.1,13.6,13.6
					C28.2,22.2,22.1,28.3,14.6,28.3"/>
			</g>
			<polygon id="Fill-8" class="st0" points="45.8,22.1 45.8,16 39.3,16 39.3,22.1 35.3,22.1 35.3,6.4 39.3,6.4 39.3,12.8 45.8,12.8 
				45.8,6.4 49.7,6.4 49.7,22.1 			"/>
			<polygon id="Fill-10" class="st0" points="55.7,9.5 55.7,12.7 63.2,12.7 63.2,15.8 55.7,15.8 55.7,18.9 64.2,18.9 64.2,22.1 
				51.7,22.1 51.7,6.4 64,6.4 64,9.5 			"/>
			<polygon id="Fill-12" class="st0" points="76.3,18.7 76.3,22.1 65.7,22.1 65.7,6.4 69.7,6.4 69.7,18.7 			"/>
			<g id="Clip-15">
			</g>
			<defs>
				<filter id="Adobe_OpacityMaskFilter_1_" filterUnits="userSpaceOnUse" x="77.1" y="6.4" width="4" height="15.6">
					<feColorMatrix  type="matrix" values="1 0 0 0 0  0 1 0 0 0  0 0 1 0 0  0 0 0 1 0"/>
				</filter>
			</defs>
			<mask maskUnits="userSpaceOnUse" x="77.1" y="6.4" width="4" height="15.6" id="mask-4_20_">
				<g class="st3">
					<polygon id="path-3_20_" class="st0" points="1,28.5 206.6,28.5 206.6,1.3 1,1.3 					"/>
				</g>
			</mask>
			<polygon id="Fill-14" class="st4" points="77.1,22.1 81.1,22.1 81.1,6.4 77.1,6.4 			"/>
			<defs>
				<filter id="Adobe_OpacityMaskFilter_2_" filterUnits="userSpaceOnUse" x="81.6" y="6.4" width="16.1" height="15.6">
					<feColorMatrix  type="matrix" values="1 0 0 0 0  0 1 0 0 0  0 0 1 0 0  0 0 0 1 0"/>
				</filter>
			</defs>
			<mask maskUnits="userSpaceOnUse" x="81.6" y="6.4" width="16.1" height="15.6" id="mask-4_19_">
				<g class="st5">
					<polygon id="path-3_19_" class="st0" points="1,28.5 206.6,28.5 206.6,1.3 1,1.3 					"/>
				</g>
			</mask>
			<polygon id="Fill-16" class="st6" points="97.7,22.1 93,22.1 89.6,17.1 86.2,22.1 81.6,22.1 87.2,14.1 82,6.4 86.6,6.4 89.6,11 
				92.6,6.4 97.3,6.4 92.1,13.9 			"/>
			<defs>
				<filter id="Adobe_OpacityMaskFilter_3_" filterUnits="userSpaceOnUse" x="103.1" y="6.3" width="12.7" height="16">
					<feColorMatrix  type="matrix" values="1 0 0 0 0  0 1 0 0 0  0 0 1 0 0  0 0 0 1 0"/>
				</filter>
			</defs>
			<mask maskUnits="userSpaceOnUse" x="103.1" y="6.3" width="12.7" height="16" id="mask-4_18_">
				<g class="st7">
					<polygon id="path-3_18_" class="st0" points="1,28.5 206.6,28.5 206.6,1.3 1,1.3 					"/>
				</g>
			</mask>
			<path id="Fill-17" class="st8" d="M115.1,15.7c0,1.8-0.5,3.3-1.5,4.2c-1,1-2.4,1.5-4.1,1.5s-3.2-0.5-4.1-1.5
				c-1-1-1.5-2.4-1.5-4.2V6.3h-0.8v9.4c0,2.1,0.6,3.7,1.7,4.8c1.1,1.1,2.7,1.7,4.7,1.7s3.6-0.6,4.7-1.7c1.1-1.1,1.7-2.7,1.7-4.8V6.3
				h-0.8V15.7z"/>
			<defs>
				<filter id="Adobe_OpacityMaskFilter_4_" filterUnits="userSpaceOnUse" x="120.9" y="6.3" width="7.8" height="16">
					<feColorMatrix  type="matrix" values="1 0 0 0 0  0 1 0 0 0  0 0 1 0 0  0 0 0 1 0"/>
				</filter>
			</defs>
			<mask maskUnits="userSpaceOnUse" x="120.9" y="6.3" width="7.8" height="16" id="mask-4_17_">
				<g class="st9">
					<polygon id="path-3_17_" class="st0" points="1,28.5 206.6,28.5 206.6,1.3 1,1.3 					"/>
				</g>
			</mask>
			<polygon id="Fill-18" class="st10" points="121.7,6.3 120.9,6.3 120.9,22.2 128.7,22.2 128.7,21.4 121.7,21.4 			"/>
			<defs>
				<filter id="Adobe_OpacityMaskFilter_5_" filterUnits="userSpaceOnUse" x="129.3" y="6.3" width="11.5" height="16">
					<feColorMatrix  type="matrix" values="1 0 0 0 0  0 1 0 0 0  0 0 1 0 0  0 0 0 1 0"/>
				</filter>
			</defs>
			<mask maskUnits="userSpaceOnUse" x="129.3" y="6.3" width="11.5" height="16" id="mask-4_16_">
				<g class="st11">
					<polygon id="path-3_16_" class="st0" points="1,28.5 206.6,28.5 206.6,1.3 1,1.3 					"/>
				</g>
			</mask>
			<polygon id="Fill-19" class="st12" points="129.3,7 134.7,7 134.7,22.2 135.5,22.2 135.5,7 140.8,7 140.8,6.3 129.3,6.3 			"/>
			<defs>
				<filter id="Adobe_OpacityMaskFilter_6_" filterUnits="userSpaceOnUse" x="143.7" y="6.3" width="0.8" height="16">
					<feColorMatrix  type="matrix" values="1 0 0 0 0  0 1 0 0 0  0 0 1 0 0  0 0 0 1 0"/>
				</filter>
			</defs>
			<mask maskUnits="userSpaceOnUse" x="143.7" y="6.3" width="0.8" height="16" id="mask-4_15_">
				<g class="st13">
					<polygon id="path-3_15_" class="st0" points="1,28.5 206.6,28.5 206.6,1.3 1,1.3 					"/>
				</g>
			</mask>
			<polygon id="Fill-20" class="st14" points="143.7,22.2 144.5,22.2 144.5,6.3 143.7,6.3 			"/>
			<defs>
				<filter id="Adobe_OpacityMaskFilter_7_" filterUnits="userSpaceOnUse" x="149.9" y="6.2" width="15" height="16">
					<feColorMatrix  type="matrix" values="1 0 0 0 0  0 1 0 0 0  0 0 1 0 0  0 0 0 1 0"/>
				</filter>
			</defs>
			<mask maskUnits="userSpaceOnUse" x="149.9" y="6.2" width="15" height="16" id="mask-4_2_">
				<g class="st15">
					<polygon id="path-3_2_" class="st0" points="1,28.5 206.6,28.5 206.6,1.3 1,1.3 					"/>
				</g>
			</mask>
			<polygon id="Fill-21" class="st16" points="164.5,6.2 164.4,6.3 163.9,6.3 157.4,19 151,6.4 150.9,6.3 150.4,6.3 150.3,6.2 
				150.3,6.3 149.9,6.3 149.9,22.2 150.7,22.2 150.7,7.5 157.2,20.4 157.3,20.5 157.5,20.5 164.1,7.5 164.2,22.2 164.9,22.2 
				164.9,6.3 164.5,6.3 			"/>
			<defs>
				<filter id="Adobe_OpacityMaskFilter_8_" filterUnits="userSpaceOnUse" x="167.6" y="6.3" width="15.4" height="16">
					<feColorMatrix  type="matrix" values="1 0 0 0 0  0 1 0 0 0  0 0 1 0 0  0 0 0 1 0"/>
				</filter>
			</defs>
			<mask maskUnits="userSpaceOnUse" x="167.6" y="6.3" width="15.4" height="16" id="mask-4_1_">
				<g class="st17">
					<polygon id="path-3_1_" class="st0" points="1,28.5 206.6,28.5 206.6,1.3 1,1.3 					"/>
				</g>
			</mask>
			<path id="Fill-22" class="st18" d="M171.1,16.7l4.2-9.3l4.3,9.3H171.1z M175.6,6.3h-0.7L167.7,22l-0.1,0.2h0.9l2.2-4.8h9.3
				l2.2,4.8h0.9L175.6,6.3L175.6,6.3z"/>
			<defs>
				<filter id="Adobe_OpacityMaskFilter_9_" filterUnits="userSpaceOnUse" x="181.8" y="6.3" width="11.5" height="16">
					<feColorMatrix  type="matrix" values="1 0 0 0 0  0 1 0 0 0  0 0 1 0 0  0 0 0 1 0"/>
				</filter>
			</defs>
			<mask maskUnits="userSpaceOnUse" x="181.8" y="6.3" width="11.5" height="16" id="mask-4_12_">
				<g class="st19">
					<polygon id="path-3_12_" class="st0" points="1,28.5 206.6,28.5 206.6,1.3 1,1.3 					"/>
				</g>
			</mask>
			<polygon id="Fill-23" class="st20" points="181.8,7 187.2,7 187.2,22.2 187.9,22.2 187.9,7 193.3,7 193.3,6.3 181.8,6.3 			"/>
			<defs>
				<filter id="Adobe_OpacityMaskFilter_10_" filterUnits="userSpaceOnUse" x="196.2" y="6.3" width="10.4" height="16">
					<feColorMatrix  type="matrix" values="1 0 0 0 0  0 1 0 0 0  0 0 1 0 0  0 0 0 1 0"/>
				</filter>
			</defs>
			<mask maskUnits="userSpaceOnUse" x="196.2" y="6.3" width="10.4" height="16" id="mask-4_11_">
				<g class="st21">
					<polygon id="path-3_11_" class="st0" points="1,28.5 206.6,28.5 206.6,1.3 1,1.3 					"/>
				</g>
			</mask>
			<polygon id="Fill-24" class="st22" points="197,21.4 197,14.4 205.2,14.4 205.2,13.6 197,13.6 197,7 206.3,7 206.3,6.3 
				196.2,6.3 196.2,22.2 206.6,22.2 206.6,21.4 			"/>
		</g>
	</g>
</g>
</svg>
