<svg width="144" height="100" fill="none" xmlns="http://www.w3.org/2000/svg"><rect x="1.25" y="1.25" width="141.5" height="97.5" rx="3.75" fill="#F0F0F0" stroke="#B2B4B8" stroke-width="1.5"/><path d="M2 5a3 3 0 013-3h134a3 3 0 013 3v21H2V5z" fill="#F9F8F8"/><path d="M122.891 16.922l-1.563-1.563a.443.443 0 00-.266-.109h-.25a3.258 3.258 0 00.688-2 3.268 3.268 0 00-3.25-3.25 3.257 3.257 0 00-3.25 3.25 3.247 3.247 0 003.25 3.25c.75 0 1.438-.25 2-.688v.266c0 .094.031.188.109.266l1.547 1.547c.156.156.391.156.532 0l.437-.438a.373.373 0 00.016-.531zm-4.641-1.672c-1.109 0-2-.89-2-2 0-1.094.891-2 2-2 1.094 0 2 .906 2 2 0 1.11-.906 2-2 2z" fill="#8D9097"/><rect x="127" y="12" width="9" height="4" rx="1" fill="#8D9097"/><rect x="6" y="10" width="14" height="8" rx="1" fill="#B2B4B8"/><rect x="26" y="12" width="9" height="4" rx="1" fill="#8D9097"/><rect x="38" y="12" width="9" height="4" rx="1" fill="#8D9097"/><rect x="50" y="12" width="9" height="4" rx="1" fill="#8D9097"/><rect x="62" y="12" width="9" height="4" rx="1" fill="#8D9097"/></svg>