<svg width="722" height="188" fill="none" xmlns="http://www.w3.org/2000/svg"><path d="M78.734 7.266a18.024 18.024 0 00-17.412 13.37L33.08 126.304l34.787 9.318L96.145 29.949c3.062-11.446-5.563-22.683-17.411-22.683z" fill="url(#paint0_linear)"/><path d="M147.601 180.944a18.025 18.025 0 0017.414-13.371l28.241-105.667-34.787-9.373-28.28 105.729c-3.062 11.446 5.564 22.682 17.412 22.682z" fill="url(#paint1_linear)"/><path d="M184.443 7.266a18 18 0 00-17.386 13.337l-19.1 71.186a28.459 28.459 0 01-10.171 15.253 28.37 28.37 0 01-17.351 5.864H23.539A18.057 18.057 0 006.1 126.285c-3.077 11.469 5.565 22.735 17.44 22.735h96.951a64.492 64.492 0 0039.293-13.417 64.674 64.674 0 0023.016-34.606l19.033-71.073c3.061-11.432-5.554-22.658-17.389-22.658z" fill="url(#paint2_linear)"/><path d="M220.539 61.67c3.107-11.468-5.529-22.756-17.411-22.756h-97.41A64.687 64.687 0 0066.374 52.33a64.913 64.913 0 00-23.11 34.613l-19.09 71.314c-3.072 11.48 5.578 22.751 17.462 22.751 8.19 0 15.356-5.505 17.466-13.418l19.061-71.462A28.665 28.665 0 0188.4 80.878a28.565 28.565 0 0117.374-5.887h97.355c8.146 0 15.281-5.46 17.411-13.321z" fill="url(#paint3_linear)"/><g clip-path="url(#clip0)" fill="#0A0D2E"><path d="M359.165.179h25.173v186.92h-25.173v-82.576h-77.497v82.576h-25.173V.179h25.173v79.158h77.497V.179zM460.396 55.41c11.508 0 21.397 1.98 29.489 5.938 8.091 3.957 14.564 9.355 19.419 16.37 4.854 7.017 8.271 15.293 10.069 25.007 1.798 9.535 2.337 19.97 1.438 31.304h-97.815c0 6.296.899 11.334 2.877 15.292 1.978 3.958 4.675 7.016 8.092 9.175 3.416 2.159 7.192 3.598 11.507 4.497 4.316.72 8.811 1.26 13.666 1.26 3.416 0 6.832-.18 10.428-.36 3.596-.18 6.833-.9 9.89-1.799 3.056-.9 5.754-2.519 8.091-4.498 2.338-1.979 4.136-4.677 4.855-8.095h25.712c-1.798 7.196-4.495 13.133-8.091 17.99-3.596 4.857-8.091 8.815-13.126 11.874-5.035 3.058-10.788 5.217-17.082 6.656-6.293 1.439-13.126 2.159-20.138 2.159-21.577 0-37.22-5.577-47.109-16.911-9.89-11.154-14.745-27.705-14.745-49.474 0-9.715 1.259-18.53 3.956-26.626 2.517-8.095 6.473-15.111 11.688-21.048 5.214-5.937 11.687-10.435 19.419-13.853 7.552-3.238 16.722-4.857 27.51-4.857zm35.782 55.051c-.18-2.159-.54-5.037-1.259-8.635-.719-3.598-2.337-7.196-4.675-10.614-2.337-3.419-5.934-6.477-10.608-8.996-4.675-2.518-10.969-3.778-19.06-3.778-7.372 0-13.306 1.08-18.161 3.239-4.854 2.158-8.63 4.857-11.687 8.095-2.877 3.239-5.035 6.657-6.113 10.435-1.079 3.778-1.798 7.196-1.798 10.434h73.361v-.18zM534.836 0h25.173v187.1h-25.173V0zM681.559 120.896l39.558 66.384h-28.41l-25.173-42.457h-.179l-25.173 42.457h-28.41l39.198-66.384v-.36l-39.198-66.025h28.41l25.173 42.278h.179l25.173-42.278h28.41l-39.558 66.025v.36zM604.242 51.813h-26.791V187.1h26.791V51.813zM602.444 9.715c-1.259-1.26-2.877-2.16-4.855-2.519-1.798-.36-4.136-.54-6.653-.54-2.517 0-4.855.18-6.833.54-1.978.36-3.776 1.26-5.034 2.519-1.259 1.26-2.158 3.058-2.877 5.217-.54 2.159-.899 5.037-.899 8.455 0 3.958.359 7.017 1.079 9.355.719 2.34 1.798 4.138 3.236 5.398 1.439 1.259 3.057 1.979 5.035 2.338 1.798.36 3.955.36 6.113.36 2.158 0 4.316-.18 6.114-.36 1.977-.36 3.596-1.079 5.034-2.338 1.259-1.26 2.338-3.059 3.057-5.398.719-2.338 1.079-5.397 1.079-9.354 0-3.419-.36-6.297-.899-8.456a9.701 9.701 0 00-2.697-5.217z"/></g><defs><linearGradient id="paint0_linear" x1="56.541" y1="140.206" x2="107.453" y2="27.36" gradientUnits="userSpaceOnUse"><stop offset=".703" stop-color="#001D84"/><stop offset=".969" stop-color="#3C43EB"/></linearGradient><linearGradient id="paint1_linear" x1="147.583" y1="185.529" x2="198.531" y2="72.652" gradientUnits="userSpaceOnUse"><stop stop-color="#3C43EB"/><stop offset=".583" stop-color="#001D84"/></linearGradient><linearGradient id="paint2_linear" x1="0" y1="129.338" x2="50.418" y2="-33.95" gradientUnits="userSpaceOnUse"><stop stop-color="#00156B"/><stop offset=".281" stop-color="#0F4FF3"/><stop offset=".651" stop-color="#0F42F5"/><stop offset="1" stop-color="#3C77EB"/></linearGradient><linearGradient id="paint3_linear" x1="29.399" y1="57.181" x2="245.318" y2="156.212" gradientUnits="userSpaceOnUse"><stop stop-color="#FCFCFC"/><stop offset=".375" stop-color="#1047F5"/><stop offset=".974" stop-color="#3A75EC"/></linearGradient><clipPath id="clip0"><path fill="#fff" transform="translate(256.495)" d="M0 0h464.621v188H0z"/></clipPath></defs></svg>