<?xml version="1.0" encoding="UTF-8"?>
<svg width="207px" height="29px" viewBox="0 0 207 29" version="1.1" xmlns="http://www.w3.org/2000/svg" xmlns:xlink="http://www.w3.org/1999/xlink">
    <!-- Generator: Sketch 48.2 (47327) - http://www.bohemiancoding.com/sketch -->
    <title>Helix-ultimate-color</title>
    <desc>Created with Sketch.</desc>
    <defs></defs>
    <g id="Index-white-Copy-4" stroke="none" stroke-width="1" fill="none" fill-rule="evenodd" transform="translate(-407.000000, -30.000000)">
        <g id="Helix-ultimate-color" transform="translate(407.000000, 30.000000)" fill-rule="nonzero">
            <path d="M8.8,17.1 C8.8,16.2 9.1,13.1 14.2,10.5 C19.2,8 19.8,6 19.8,6 C19.3,8.8 18.4,9.6 13.6,12.2 C8.9,14.7 8.8,17.1 8.8,17.1 Z" id="Fill-1_1_" fill="#25A9E0"></path>
            <path d="M8.8,22.4 C8.8,22.4 8.9,19.9 13.5,17.5 C18.3,14.9 19.2,14.1 19.7,11.3 C19.7,11.3 19.2,13.3 14.1,15.8 C9,18.4 8.7,21.5 8.8,22.4" id="Fill-3_1_" fill="#25A9E0"></path>
            <g id="Group-7_1_" transform="translate(0.000000, 0.187521)" fill="#25A9E0">
                <path d="M14.5,2.1 C7.7,2.1 2.2,7.6 2.2,14.3 C2.2,21 7.7,26.5 14.4,26.5 C21.1,26.5 26.6,21 26.6,14.3 C26.7,7.6 21.2,2.1 14.5,2.1 M14.5,27.9 C7,27.9 0.9,21.8 0.9,14.3 C0.9,6.8 7,0.7 14.5,0.7 C22,0.7 28.1,6.8 28.1,14.3 C28.1,21.8 22,27.9 14.5,27.9" id="Fill-5_1_"></path>
            </g>
            <g id="Group" transform="translate(35.000000, 6.000000)" fill="#000000">
                <polygon id="Fill-8_9_" points="10.6 15.7 10.6 9.6 4.1 9.6 4.1 15.7 0.2 15.7 0.2 0 4.1 0 4.1 6.4 10.6 6.4 10.6 0 14.6 0 14.6 15.7"></polygon>
                <polygon id="Fill-10_9_" points="20.6 3.1 20.6 6.2 28.1 6.2 28.1 9.4 20.6 9.4 20.6 12.5 29.1 12.5 29.1 15.7 16.6 15.7 16.6 0 28.9 0 28.9 3.1"></polygon>
                <polygon id="Fill-12_9_" points="41.2 12.3 41.2 15.7 30.5 15.7 30.5 0 34.5 0 34.5 12.3"></polygon>
                <polygon id="Fill-14_9_" points="41.9 15.7 45.9 15.7 45.9 0 41.9 0"></polygon>
                <polygon id="Fill-16_9_" points="62.6 15.7 57.8 15.7 54.5 10.7 51.1 15.7 46.5 15.7 52.1 7.7 46.8 0 51.5 0 54.5 4.6 57.5 0 62.2 0 57 7.5"></polygon>
            </g>
            <g id="Group" transform="translate(103.000000, 5.000000)" fill="#000000">
                <path d="M11.9,10.3 C11.9,12.1 11.4,13.6 10.4,14.5 C9.4,15.5 8,16 6.3,16 C4.6,16 3.1,15.5 2.2,14.5 C1.2,13.5 0.7,12.1 0.7,10.3 L0.7,0.9 L0,0.9 L0,10.3 C0,12.4 0.6,14 1.7,15.1 C2.8,16.2 4.4,16.8 6.4,16.8 C8.4,16.8 10,16.2 11.1,15.1 C12.2,14 12.8,12.4 12.8,10.3 L12.8,0.9 L12,0.9 L12,10.3 L11.9,10.3 Z" id="Fill-17_9_"></path>
                <polygon id="Fill-18_9_" points="18.5 0.9 17.7 0.9 17.7 16.8 25.5 16.8 25.5 16 18.5 16"></polygon>
                <polygon id="Fill-19_9_" points="26.2 1.6 31.5 1.6 31.5 16.8 32.3 16.8 32.3 1.6 37.7 1.6 37.7 0.9 26.2 0.9"></polygon>
                <polygon id="Fill-20_9_" points="40.5 16.8 41.3 16.8 41.3 0.9 40.5 0.9"></polygon>
                <polygon id="Fill-21_9_" points="61.3 0.8 61.3 0.9 60.7 0.9 54.3 13.6 47.9 1 47.8 0.9 47.3 0.9 47.2 0.8 47.2 0.9 46.8 0.9 46.8 16.8 47.5 16.8 47.5 2.1 54.1 15 54.2 15.1 54.4 15.1 61 2.1 61 16.8 61.8 16.8 61.8 0.9 61.3 0.9"></polygon>
                <path d="M67.9,11.3 L72.1,2 L76.4,11.3 L67.9,11.3 Z M72.5,0.9 L71.8,0.9 L64.6,16.6 L64.5,16.8 L65.4,16.8 L67.6,12 L76.9,12 L79.1,16.8 L80,16.8 L72.5,0.9 Z" id="Fill-22_9_"></path>
                <polygon id="Fill-23_9_" points="78.7 1.6 84 1.6 84 16.8 84.8 16.8 84.8 1.6 90.2 1.6 90.2 0.9 78.7 0.9"></polygon>
                <polygon id="Fill-24_9_" points="93.8 16 93.8 9 102.1 9 102.1 8.2 93.8 8.2 93.8 1.6 103.1 1.6 103.1 0.9 93 0.9 93 16.8 103.4 16.8 103.4 16"></polygon>
            </g>
        </g>
    </g>
</svg>