<svg width="112" height="29" viewBox="0 0 112 29" fill="none" xmlns="http://www.w3.org/2000/svg">
<path d="M103.249 9H98.5908V8.35059L101.052 5.61621C101.416 5.2028 101.667 4.86751 101.804 4.61035C101.944 4.34993 102.014 4.08138 102.014 3.80469C102.014 3.43359 101.901 3.12923 101.677 2.8916C101.452 2.65397 101.153 2.53516 100.778 2.53516C100.329 2.53516 99.9792 2.66374 99.7285 2.9209C99.4811 3.1748 99.3574 3.52962 99.3574 3.98535H98.4541C98.4541 3.33105 98.6641 2.80208 99.084 2.39844C99.5072 1.99479 100.072 1.79297 100.778 1.79297C101.439 1.79297 101.962 1.96712 102.346 2.31543C102.73 2.66048 102.922 3.12109 102.922 3.69727C102.922 4.39714 102.476 5.23047 101.584 6.19727L99.6797 8.2627H103.249V9ZM104.318 8.52637C104.318 8.37012 104.364 8.23991 104.455 8.13574C104.549 8.03158 104.689 7.97949 104.875 7.97949C105.061 7.97949 105.201 8.03158 105.295 8.13574C105.393 8.23991 105.441 8.37012 105.441 8.52637C105.441 8.67611 105.393 8.80143 105.295 8.90234C105.201 9.00326 105.061 9.05371 104.875 9.05371C104.689 9.05371 104.549 9.00326 104.455 8.90234C104.364 8.80143 104.318 8.67611 104.318 8.52637ZM111.301 5.96777C111.301 7.02572 111.12 7.81185 110.759 8.32617C110.397 8.84049 109.833 9.09766 109.064 9.09766C108.306 9.09766 107.744 8.84701 107.38 8.3457C107.015 7.84115 106.826 7.08919 106.813 6.08984V4.88379C106.813 3.83887 106.994 3.0625 107.355 2.55469C107.717 2.04688 108.283 1.79297 109.055 1.79297C109.82 1.79297 110.383 2.03874 110.744 2.53027C111.105 3.01855 111.291 3.77376 111.301 4.7959V5.96777ZM110.397 4.73242C110.397 3.96745 110.29 3.41081 110.075 3.0625C109.86 2.71094 109.52 2.53516 109.055 2.53516C108.592 2.53516 108.256 2.70931 108.044 3.05762C107.832 3.40592 107.723 3.94141 107.717 4.66406V6.10938C107.717 6.8776 107.827 7.44564 108.049 7.81348C108.273 8.17806 108.612 8.36035 109.064 8.36035C109.51 8.36035 109.841 8.18783 110.056 7.84277C110.274 7.49772 110.388 6.9541 110.397 6.21191V4.73242Z" fill="#3A3A19"/>
<path fill-rule="evenodd" clip-rule="evenodd" d="M6.97765 19.45C6.93863 18.636 7.21068 15.8819 11.7099 13.6707C16.2091 11.4607 16.6741 9.67554 16.6741 9.67554C16.2091 12.1197 15.433 12.8188 11.1669 15.1058C7.10012 17.2877 6.97765 19.45 6.97765 19.45Z" fill="#2A98FE"/>
<path fill-rule="evenodd" clip-rule="evenodd" d="M6.97765 24.1431C6.97765 24.1431 7.10012 21.9808 11.1669 19.7989C15.433 17.5108 16.2091 16.8117 16.6741 14.3687C16.6741 14.3687 16.2091 16.1538 11.7099 18.3638C7.21068 20.575 6.93863 23.328 6.97765 24.1431Z" fill="#2A98FE"/>
<mask id="mask0" mask-type="alpha" maskUnits="userSpaceOnUse" x="0" y="4" width="25" height="24">
<path d="M0 4H24.0015V28H0V4Z" fill="white"/>
</mask>
<g mask="url(#mask0)">
<path fill-rule="evenodd" clip-rule="evenodd" d="M12.0008 27.9998C5.38365 27.9998 0 22.6173 0 16.0012C0 9.38304 5.38365 3.99939 12.0008 3.99939C18.6179 3.99939 24.0015 9.38304 24.0015 16.0012C24.0015 22.6173 18.6179 27.9998 12.0008 27.9998ZM12.0008 5.21767C6.05566 5.21767 1.21829 10.054 1.21829 16.0012C1.21829 21.9452 6.05566 26.7826 12.0008 26.7826C17.9459 26.7826 22.7832 21.9452 22.7832 16.0012C22.7832 10.054 17.9459 5.21767 12.0008 5.21767Z" fill="#2A98FF"/>
</g>
<path fill-rule="evenodd" clip-rule="evenodd" d="M45.5397 16.266V10.7253H39.6306V16.266H36V2.0007H39.6306V7.86968H45.5397V2.0007H49.1612V16.266H45.5397Z" fill="#2A98FF"/>
<path fill-rule="evenodd" clip-rule="evenodd" d="M54.6184 4.85471V7.69027H61.4228V10.545H54.6184V13.4106H62.3783V16.2663H50.9877V2H62.1595V4.85471H54.6184Z" fill="#2A98FF"/>
<path fill-rule="evenodd" clip-rule="evenodd" d="M73.3776 13.2315V16.2658H63.6974V2.00046H67.329V13.2315H73.3776Z" fill="#2A98FF"/>
<path fill-rule="evenodd" clip-rule="evenodd" d="M74.6783 16.2656H78.309V2.00024H74.6783V16.2656Z" fill="#2A98FF"/>
<path fill-rule="evenodd" clip-rule="evenodd" d="M94.1245 16.266H89.7872L86.7028 11.7191L83.6283 16.266H79.4105L84.5045 8.97382L79.7388 2.0007H83.9575L86.7028 6.15831L89.4581 2.0007H93.716L89.0113 8.80423L94.1245 16.266Z" fill="#2A98FF"/>
<path d="M40.7774 21.4986V25.9896C40.7744 26.4324 40.6765 26.8179 40.4838 27.1463C40.291 27.4746 40.0184 27.7276 39.666 27.9053C39.3166 28.08 38.9145 28.1674 38.4596 28.1674C37.7669 28.1674 37.2111 27.9791 36.7925 27.6026C36.3768 27.2231 36.1614 26.699 36.1464 26.0303V21.4986H36.6976V25.949C36.6976 26.5032 36.8557 26.9339 37.172 27.2411C37.4882 27.5454 37.9175 27.6975 38.4596 27.6975C39.0018 27.6975 39.4295 27.5439 39.7428 27.2366C40.0591 26.9294 40.2172 26.5017 40.2172 25.9535V21.4986H40.7774Z" fill="black"/>
<path d="M45.4783 27.6071H48.7268V28.077H44.918V21.4986H45.4783V27.6071Z" fill="black"/>
<path d="M55.6054 21.973H53.3509V28.077H52.7951V21.973H50.5451V21.4986H55.6054V21.973Z" fill="black"/>
<path d="M59.9403 28.077H59.3846V21.4986H59.9403V28.077Z" fill="black"/>
<path d="M65.0568 21.4986L67.4831 27.3044L69.9183 21.4986H70.6593V28.077H70.1036V25.2125L70.1488 22.2757L67.6999 28.077H67.2707L64.8309 22.2983L64.8761 25.1944V28.077H64.3204V21.4986H65.0568Z" fill="black"/>
<path d="M78.55 26.2336H75.5635L74.8857 28.077H74.3029L76.7924 21.4986H77.321L79.8105 28.077H79.2322L78.55 26.2336ZM75.7352 25.7592H78.3737L77.0545 22.1763L75.7352 25.7592Z" fill="black"/>
<path d="M87.2493 21.973H84.9948V28.077H84.4391V21.973H82.189V21.4986H87.2493V21.973Z" fill="black"/>
<path d="M94.5391 24.9233H91.4622V27.6071H94.9999V28.077H90.9065V21.4986H94.9773V21.973H91.4622V24.4535H94.5391V24.9233Z" fill="black"/>
</svg>
