<svg width="25" height="24" viewBox="0 0 25 24" fill="none" xmlns="http://www.w3.org/2000/svg">
<path fill-rule="evenodd" clip-rule="evenodd" d="M6.97765 15.4498C6.93863 14.6358 7.21068 11.8816 11.7099 9.67049C16.2091 7.46045 16.6741 5.67529 16.6741 5.67529C16.2091 8.11945 15.433 8.81856 11.1669 11.1055C7.10012 13.2874 6.97765 15.4498 6.97765 15.4498Z" fill="#2A98FE"/>
<path fill-rule="evenodd" clip-rule="evenodd" d="M6.97765 20.1431C6.97765 20.1431 7.10012 17.9808 11.1669 15.7989C15.433 13.5108 16.2091 12.8117 16.6741 10.3687C16.6741 10.3687 16.2091 12.1538 11.7099 14.3638C7.21068 16.575 6.93863 19.328 6.97765 20.1431Z" fill="#2A98FE"/>
<mask id="mask0" mask-type="alpha" maskUnits="userSpaceOnUse" x="0" y="0" width="25" height="24">
<path d="M0 0H24.0015V24H0V0Z" fill="white"/>
</mask>
<g mask="url(#mask0)">
<path fill-rule="evenodd" clip-rule="evenodd" d="M12.0008 23.9999C5.38365 23.9999 0 18.6174 0 12.0014C0 5.38316 5.38365 -0.000488281 12.0008 -0.000488281C18.6179 -0.000488281 24.0015 5.38316 24.0015 12.0014C24.0015 18.6174 18.6179 23.9999 12.0008 23.9999ZM12.0008 1.2178C6.05566 1.2178 1.21829 6.05408 1.21829 12.0014C1.21829 17.9454 6.05566 22.7827 12.0008 22.7827C17.9459 22.7827 22.7832 17.9454 22.7832 12.0014C22.7832 6.05408 17.9459 1.2178 12.0008 1.2178Z" fill="#2A98FF"/>
</g>
</svg>
