<svg width="16" height="16" viewBox="0 0 16 16" fill="none" xmlns="http://www.w3.org/2000/svg">
<path d="M1.27529 13.4267H5.07118V14.8768H3.72817C3.64578 14.8768 3.56676 14.9096 3.5085 14.968C3.45024 15.0265 3.41751 15.1057 3.41751 15.1884C3.41751 15.271 3.45024 15.3503 3.5085 15.4087C3.56676 15.4672 3.64578 15.5 3.72817 15.5H8.60628C8.62976 15.4981 8.65293 15.4934 8.67531 15.486C8.7209 15.4935 8.76691 15.4982 8.81306 15.5H12.2234C12.2619 15.4995 12.2999 15.4918 12.3355 15.4773C12.4093 15.4913 12.4842 15.4989 12.5593 15.5H14.6853C15.0338 15.4996 15.368 15.3605 15.6145 15.1133C15.861 14.8661 15.9996 14.5309 16 14.1812V10.1004C15.9993 9.83238 15.9171 9.57095 15.7644 9.35099C15.6118 9.13102 15.3959 8.96298 15.1456 8.86928V5.91345C15.1448 5.70036 15.0852 5.49164 14.9733 5.31051C14.8614 5.12937 14.7016 4.98291 14.5117 4.88742V2.02911C14.5113 1.68997 14.3769 1.36484 14.1378 1.12504C13.8987 0.885244 13.5746 0.750367 13.2365 0.75H1.27529C0.937193 0.750364 0.613048 0.88524 0.373967 1.12504C0.134886 1.36484 0.000394711 1.68997 0 2.02912V12.1474C0.000344042 12.4866 0.134811 12.8117 0.373896 13.0516C0.612981 13.2914 0.937156 13.4264 1.27529 13.4267V13.4267ZM5.6925 14.8768V13.4267H7.6618V14.3453C7.6631 14.5309 7.70955 14.7133 7.79711 14.8768L5.6925 14.8768ZM15.3787 10.1004V14.1812C15.3785 14.3656 15.3053 14.5424 15.1754 14.6728C15.0454 14.8032 14.8691 14.8765 14.6853 14.8768H12.5593C12.3755 14.8765 12.1993 14.8032 12.0693 14.6728C11.9393 14.5424 11.8662 14.3656 11.8659 14.1812V10.1004C11.8661 9.91596 11.9392 9.73912 12.0692 9.60867C12.1992 9.47823 12.3755 9.40484 12.5593 9.40461H14.6853C14.8692 9.40484 15.0454 9.47823 15.1754 9.60867C15.3054 9.73912 15.3785 9.91596 15.3787 10.1004V10.1004ZM14.5242 5.91345V8.78136H12.5593C12.2107 8.7818 11.8765 8.92093 11.6301 9.1682C11.3836 9.41548 11.245 9.75072 11.2446 10.1004V14.1812C11.2454 14.4276 11.3155 14.6687 11.4471 14.8768H8.81306C8.67257 14.8766 8.53787 14.8206 8.43852 14.721C8.33917 14.6213 8.28328 14.4862 8.28312 14.3453V5.91345C8.28327 5.7725 8.33915 5.63737 8.4385 5.53769C8.53785 5.43801 8.67255 5.38193 8.81306 5.38174H13.9943C14.1348 5.38193 14.2695 5.43801 14.3689 5.53769C14.4682 5.63737 14.5241 5.7725 14.5242 5.91345H14.5242ZM0.621325 2.02911C0.621567 1.85522 0.690548 1.68852 0.813141 1.56557C0.935734 1.44262 1.10193 1.37346 1.27529 1.37325H13.2365C13.4098 1.37346 13.576 1.44262 13.6986 1.56557C13.8212 1.68852 13.8902 1.85522 13.8904 2.02912V4.75849H8.81306C8.50782 4.75885 8.21518 4.88066 7.99935 5.09718C7.78352 5.3137 7.66212 5.60726 7.6618 5.91345V9.68677H0.621325V2.02911ZM0.621325 10.31H7.6618V12.8035H1.27529C1.10189 12.8033 0.935666 12.7341 0.813068 12.6111C0.690471 12.4881 0.621513 12.3213 0.621322 12.1474L0.621325 10.31Z" fill="black"/>
</svg>
