<svg width="22" height="22" viewBox="0 0 22 22" fill="none" xmlns="http://www.w3.org/2000/svg">
    <path d="M11.0353 16.1783C8.04379 16.1783 5.61867 13.7532 5.61867 10.7617C5.61867 7.77012 8.04379 5.345 11.0353 5.345C14.0269 5.345 16.452 7.77012 16.452 10.7617C16.452 13.7532 14.0269 16.1783 11.0353 16.1783ZM11.0353 14.6783C13.1984 14.6783 14.952 12.9248 14.952 10.7617C14.952 8.59855 13.1984 6.845 11.0353 6.845C8.87222 6.845 7.11867 8.59855 7.11867 10.7617C7.11867 12.9248 8.87222 14.6783 11.0353 14.6783ZM21.75 9.946V11.5532C21.751 12.2606 21.273 12.879 20.5882 13.0561L19.3815 13.3684C19.2249 13.8716 19.0229 14.3595 18.778 14.8261L19.4096 15.8987C19.7681 16.5075 19.6696 17.2818 19.17 17.7813L18.0327 18.9187C17.5331 19.4183 16.7589 19.5168 16.1501 19.1583L15.0774 18.5267C14.6218 18.7657 14.1459 18.9638 13.6553 19.1187L13.3402 20.3375C13.1635 21.0219 12.5461 21.5001 11.8393 21.5H10.2308C9.52415 21.4998 8.90713 21.0217 8.73035 20.337L8.41923 19.1285C7.92357 18.9736 7.44276 18.7746 6.98258 18.534L5.87693 19.1853C5.26813 19.5438 4.49391 19.4453 3.99434 18.9457L2.85701 17.8083C2.35741 17.3088 2.25887 16.5345 2.6171 15.9263L3.26641 14.8217C3.02473 14.3601 2.82502 13.8777 2.66967 13.3804L1.4125 13.0549C0.72833 12.8782 0.250233 12.2612 0.25 11.5543V9.94607C0.249938 9.23922 0.728097 8.62186 1.41216 8.44524L2.68604 8.11569C2.83761 7.64065 3.02974 7.17951 3.2603 6.73739L2.59041 5.59993C2.23187 4.99113 2.33041 4.21691 2.83 3.71734L3.96732 2.58001C4.46691 2.08041 5.24113 1.98187 5.84987 2.34038L6.98753 3.01024C7.44165 2.77322 7.91583 2.57678 8.40452 2.42322L8.73048 1.1625C8.90713 0.47833 9.52415 0.00023265 10.231 5.99875e-09H11.8393C12.5461 -6.184e-05 13.1635 0.478097 13.3402 1.16258L13.6673 2.4302C14.1513 2.58364 14.621 2.77915 15.0709 3.01451L16.1751 2.36541C16.7839 2.00687 17.5581 2.10541 18.0577 2.605L19.1947 3.74199C19.6943 4.24157 19.7928 5.0158 19.4343 5.62453L18.7832 6.73026C19.0176 7.17866 19.2124 7.64666 19.3654 8.12892L20.5877 8.44521C21.272 8.62199 21.7501 9.23929 21.75 9.946ZM20.2125 9.89752L18.5761 9.47409C18.3129 9.40598 18.1072 9.2008 18.0384 8.9378C17.8697 8.29293 17.6123 7.6746 17.2735 7.10056C17.1348 6.86561 17.1346 6.5739 17.273 6.3388L18.1417 4.8634C18.1533 4.84377 18.1501 4.81879 18.134 4.80266L16.997 3.66565C16.9809 3.64954 16.9559 3.64636 16.9357 3.65823L15.4614 4.5249C15.2263 4.6631 14.9347 4.66279 14.6999 4.52409C14.1246 4.18428 13.5048 3.92621 12.8584 3.75731C12.5951 3.68852 12.3898 3.48255 12.3218 3.21908L11.8878 1.5375C11.8821 1.51542 11.8622 1.5 11.8393 1.5H10.2312C10.2085 1.50001 10.1885 1.51543 10.1828 1.53774L9.74946 3.21374C9.68119 3.47775 9.47501 3.68391 9.21099 3.75214C8.56022 3.92032 7.93621 4.17882 7.35716 4.52012C7.12227 4.65857 6.83075 4.65863 6.59579 4.52029L5.08874 3.63292C5.0691 3.62136 5.04412 3.62454 5.028 3.64066L3.89065 4.77801C3.87454 4.79412 3.87136 4.8191 3.88292 4.83873L4.77025 6.3454C4.90858 6.58027 4.90858 6.87171 4.77026 7.10659C4.43526 7.67544 4.18009 8.28766 4.01193 8.92605C3.94279 9.1885 3.73726 9.39312 3.4745 9.4611L1.7875 9.89752C1.76542 9.90322 1.75 9.92313 1.75 9.946V11.5541C1.75001 11.5769 1.76543 11.5968 1.78802 11.6026L3.46135 12.036C3.7257 12.1044 3.93195 12.3111 3.99981 12.5756C4.16872 13.234 4.43002 13.8652 4.77595 14.4503C4.91479 14.6852 4.91515 14.9769 4.7769 15.2121L3.90992 16.6869C3.89836 16.7066 3.90154 16.7315 3.91766 16.7477L5.05501 17.885C5.07112 17.9011 5.0961 17.9043 5.11569 17.8928L6.59103 17.0238C6.82619 16.8853 7.11803 16.8854 7.35303 17.0242C7.93731 17.3692 8.56743 17.6299 9.22469 17.7985C9.48957 17.8665 9.69648 18.0732 9.76465 18.338L10.1829 19.9625C10.1885 19.9846 10.2085 20 10.231 20H11.8394C11.8622 20 11.8821 19.9846 11.8879 19.9622L12.3102 18.3289C12.3784 18.0653 12.5841 17.8593 12.8476 17.7908C13.5 17.6211 14.1254 17.3607 14.7054 17.0171C14.9405 16.8778 15.2327 16.8774 15.4682 17.016L16.9113 17.8657C16.9309 17.8773 16.9559 17.8741 16.972 17.858L18.1093 16.7207C18.1255 16.7045 18.1286 16.6796 18.117 16.6599L17.2674 15.2169C17.1287 14.9814 17.1291 14.6891 17.2685 14.4539C17.6178 13.8646 17.8812 13.2283 18.0506 12.5645C18.1183 12.2995 18.3247 12.0924 18.5894 12.0239L20.2125 11.6039C20.2346 11.5982 20.25 11.5782 20.25 11.5543V9.94593C20.25 9.92313 20.2346 9.90322 20.2125 9.89752Z" fill="#A5B1C5"/>
</svg>
