<svg width="16" height="14" viewBox="0 0 16 14" fill="red" xmlns="http://www.w3.org/2000/svg">
    <path d="M16 13L16 1C16 0.447715 15.5523 -1.95702e-08 15 -4.37114e-08L13 -1.31134e-07C12.4477 -1.55275e-07 12 0.447715 12 1L12 13C12 13.5523 12.4477 14 13 14L15 14C15.5523 14 16 13.5523 16 13Z" fill="#A5B1C5"/>
    <path d="M10 13L10 1C10 0.447715 9.55228 -1.95702e-08 9 -4.37114e-08L7 -1.31134e-07C6.44772 -1.55275e-07 6 0.447715 6 1L6 13C6 13.5523 6.44772 14 7 14L9 14C9.55228 14 10 13.5523 10 13Z" fill="#A5B1C5"/>
    <path d="M4 13L4 1C4 0.447715 3.55228 -1.95702e-08 3 -4.37114e-08L1 -1.31134e-07C0.447716 -1.55275e-07 6.95685e-07 0.447715 6.71544e-07 1L1.47008e-07 13C1.22867e-07 13.5523 0.447715 14 1 14L3 14C3.55228 14 4 13.5523 4 13Z" fill="#A5B1C5"/>
</svg>
