
<svg width="16" height="16" xmlns="http://www.w3.org/2000/svg" fill="none" viewBox="0 0 16 16"><path fill="#000000" d="M14.922 6.333h-1.195c-.182 0-.348-.106-.403-.259a5.551 5.551 0 00-.202-.486c-.066-.142-.026-.328.1-.453l.85-.852c.42-.42.42-1.103 0-1.523l-.833-.833a1.08 1.08 0 00-1.524 0l-.85.85c-.126.126-.313.168-.453.1a5.718 5.718 0 00-.488-.202c-.152-.054-.258-.22-.258-.402V1.077C9.666.483 9.183 0 8.59 0H7.41c-.594 0-1.077.483-1.077 1.077v1.196c0 .182-.106.347-.259.402-.166.06-.328.127-.486.202-.142.067-.328.026-.453-.1l-.852-.85a1.08 1.08 0 00-1.524 0l-.832.833c-.42.42-.42 1.103 0 1.523l.852.853c.124.124.165.31.098.452-.074.158-.142.32-.202.487-.054.152-.22.258-.402.258H1.077C.483 6.333 0 6.816 0 7.41V8.59c0 .594.483 1.077 1.077 1.077h1.196c.182 0 .348.106.402.259.06.166.128.328.202.486.067.142.026.328-.1.453l-.851.851a1.08 1.08 0 000 1.524l.833.834a1.08 1.08 0 001.524 0l.851-.852c.126-.125.312-.166.453-.099.158.075.32.142.487.203.152.054.258.22.258.402v1.196c0 .594.484 1.077 1.078 1.077h1.178c.594 0 1.078-.483 1.078-1.077v-1.196c0-.182.106-.347.258-.402.166-.06.329-.127.486-.202.142-.067.329-.026.454.1l.85.85a1.08 1.08 0 001.525 0l.833-.833a1.08 1.08 0 000-1.524l-.852-.852c-.125-.124-.166-.31-.1-.452a5.7 5.7 0 00.203-.487c.055-.152.22-.258.403-.258h1.195c.594 0 1.078-.483 1.078-1.077V7.41c0-.595-.483-1.078-1.077-1.078zm.41 2.256a.41.41 0 01-.41.41h-1.195c-.466 0-.88.281-1.03.7a4.66 4.66 0 01-.178.429c-.187.398-.094.883.231 1.208l.851.851c.16.16.161.422 0 .582l-.833.833c-.16.16-.42.16-.581 0l-.851-.851a1.076 1.076 0 00-1.21-.231c-.14.066-.282.125-.428.178-.418.15-.698.564-.698 1.03v1.195a.41.41 0 01-.411.41H7.41a.41.41 0 01-.41-.41v-1.196c0-.465-.28-.879-.698-1.029a5.048 5.048 0 01-.43-.178 1.006 1.006 0 00-.43-.096c-.282 0-.564.113-.778.326l-.851.851c-.16.16-.42.16-.582 0l-.833-.833a.412.412 0 010-.581l.851-.85c.326-.325.419-.811.232-1.21a4.918 4.918 0 01-.178-.428c-.151-.419-.565-.7-1.03-.7H1.077a.41.41 0 01-.41-.41V7.41a.41.41 0 01.41-.41h1.196c.465 0 .879-.28 1.029-.699a4.85 4.85 0 01.179-.43 1.073 1.073 0 00-.232-1.208l-.851-.851a.411.411 0 010-.58l.833-.834c.16-.16.42-.16.582 0l.85.851c.327.326.812.42 1.21.232.14-.066.282-.126.428-.178.418-.15.699-.565.699-1.03V1.077a.41.41 0 01.41-.41H8.59a.41.41 0 01.41.41v1.196c0 .465.281.879.699 1.029.146.053.289.113.429.179a1.07 1.07 0 001.208-.232l.852-.851c.16-.16.42-.16.581 0l.833.833c.16.16.16.42 0 .58l-.85.852c-.326.325-.42.81-.232 1.209.066.14.125.282.178.428.15.42.564.7 1.03.7h1.195a.41.41 0 01.41.41V8.59z"/><path fill="#000000" d="M8 5C6.346 5 5 6.346 5 8s1.346 3 3 3 3-1.346 3-3-1.346-3-3-3zm0 5.143A2.145 2.145 0 015.857 8c0-1.182.962-2.143 2.143-2.143 1.181 0 2.143.961 2.143 2.143A2.145 2.145 0 018 10.143z"/></svg>