<svg width="14" height="14" viewBox="0 0 14 14" fill="none" xmlns="http://www.w3.org/2000/svg">
    <path d="M0 3.81818V0.636364C0 0.467589 0.0670452 0.305728 0.186387 0.186387C0.305728 0.0670452 0.467589 0 0.636364 0H13.3636C13.5324 0 13.6943 0.0670452 13.8136 0.186387C13.933 0.305728 14 0.467589 14 0.636364V3.81818H0ZM0 5.09091V13.3636C0 13.5324 0.0670452 13.6943 0.186387 13.8136C0.305728 13.933 0.467589 14 0.636364 14H13.3636C13.5324 14 13.6943 13.933 13.8136 13.8136C13.933 13.6943 14 13.5324 14 13.3636V5.09091H0Z" fill="#A5B1C5"/>
</svg>
