<svg width="19" height="16" viewBox="0 0 19 16" fill="none" xmlns="http://www.w3.org/2000/svg">
<path d="M17.9233 6.75707L18.4261 6.24754C18.6675 5.99947 18.6675 5.67096 18.4328 5.44301L18.2719 5.28211C18.0574 5.06757 17.7222 5.08768 17.4942 5.31563L16.9914 5.81175L17.9233 6.75707ZM10.22 13.7028L11.5877 13.0927L17.4272 7.2599L16.4886 6.32799L10.6558 12.1608L10.0121 13.4816C9.9585 13.5955 10.0926 13.7564 10.22 13.7028Z" fill="#000000"/>
<path d="M3.72412 4.24072H9.2832C9.53955 4.24072 9.72998 4.03564 9.72998 3.7793C9.72998 3.53027 9.53955 3.33984 9.2832 3.33984H3.72412C3.46045 3.33984 3.27002 3.53027 3.27002 3.7793C3.27002 4.03564 3.46045 4.24072 3.72412 4.24072ZM3.72412 6.79688H9.2832C9.53955 6.79688 9.72998 6.5918 9.72998 6.33545C9.72998 6.08643 9.53955 5.896 9.2832 5.896H3.72412C3.46045 5.896 3.27002 6.08643 3.27002 6.33545C3.27002 6.5918 3.46045 6.79688 3.72412 6.79688ZM3.72412 9.35303H6.35352C6.61719 9.35303 6.80762 9.15527 6.80762 8.90625C6.80762 8.6499 6.61719 8.45215 6.35352 8.45215H3.72412C3.46045 8.45215 3.27002 8.6499 3.27002 8.90625C3.27002 9.15527 3.46045 9.35303 3.72412 9.35303Z" fill="#000000"/>
<path d="M11.0488 15.7031H2.27051C0.754395 15.7031 0 14.9414 0 13.4106V2.2998C0 0.776367 0.761719 0 2.27051 0H11.0488C12.5649 0 13.3193 0.776367 13.3193 2.2998V7.63232L12.1597 8.75809L12.1401 2.32178C12.1401 1.58936 11.752 1.1792 10.9902 1.1792H2.3291C1.56738 1.1792 1.1792 1.59668 1.1792 2.32178V13.3887C1.1792 14.1211 1.56738 14.5239 2.32178 14.5239H10.9976C11.752 14.5239 12.1401 14.3887 12.1401 14.3887L13.3193 13.4269V13.4106C13.3193 14.9414 12.5649 15.7031 11.0488 15.7031Z" fill="#000000"/>
</svg>
