<svg width="18" height="18" viewBox="0 0 18 18" fill="none" xmlns="http://www.w3.org/2000/svg">
    <path d="M15.4287 4.8057L13.1826 2.57184L9.00012 6.76628L11.2467 9.00041L15.4287 4.8057Z" fill="#A5B1C5"/>
    <path d="M7.74611 9.73469C7.60953 10.0625 7.93882 10.3912 8.26655 10.2543L10.2858 9.21013L8.78978 7.71472L7.74611 9.73469Z" fill="#A5B1C5"/>
    <path d="M17.8375 2.51743C18.0543 2.30063 18.0543 1.94928 17.8375 1.73248L16.2679 0.162996C16.0511 -0.053803 15.6998 -0.053803 15.483 0.162996L14.143 1.50296L16.4974 3.85754L17.8375 2.51743Z" fill="#A5B1C5"/>
    <path d="M1.6236 14.7091H2.16478V17.4581C2.16478 17.6774 2.29642 17.8756 2.49879 17.9593C2.69821 18.0428 2.9323 17.9982 3.0886 17.8417L6.21321 14.7091H12.5194C13.4146 14.7091 14.1429 13.9789 14.1429 13.0814V7.69434L12.4358 9.40582C12.2868 9.5553 12.1129 9.67286 11.9179 9.75495L8.81933 11.3657C8.53761 11.4876 8.32621 11.5306 8.11059 11.5306C7.9495 11.5306 7.79419 11.4995 7.6441 11.4537H3.78833C3.48913 11.4537 3.24715 11.211 3.24715 10.9111C3.24715 10.6112 3.48913 10.3686 3.78833 10.3686H6.52876C6.42193 10.0134 6.46773 9.62863 6.61501 9.27554L8.28506 6.02384C8.33255 5.9036 8.44995 5.72867 8.59849 5.57989L10.3162 3.85782H1.6236C0.7284 3.85782 6.10352e-05 4.58802 6.10352e-05 5.48551V13.0814C6.10352e-05 13.9789 0.7284 14.7091 1.6236 14.7091Z" fill="#A5B1C5"/>
</svg>
