<svg width="12" height="12" viewBox="0 0 12 12" fill="none" xmlns="http://www.w3.org/2000/svg">
<path d="M11.4141 11.4111C11.6328 11.1924 11.6328 10.833 11.4141 10.6143L6.58594 5.78615L11.4141 0.958021C11.6328 0.747084 11.6328 0.379896 11.4141 0.161146C11.1953 -0.0497914 10.8359 -0.0497914 10.6172 0.161146L5.78906 4.98927L0.960938 0.161146C0.742188 -0.0497914 0.382812 -0.0576039 0.164062 0.161146C-0.0546875 0.387709 -0.0546875 0.747084 0.164062 0.958021L4.99219 5.78615L0.164062 10.6143C-0.0546875 10.833 -0.0546875 11.2002 0.164062 11.4111C0.382812 11.6299 0.742188 11.6299 0.960938 11.4111L5.78906 6.58302L10.6172 11.4111C10.8359 11.6299 11.1953 11.6377 11.4141 11.4111Z" fill="#000000"/>
</svg>
