<svg width="16" height="16" viewBox="0 0 16 16" fill="none" xmlns="http://www.w3.org/2000/svg">
    <path d="M1.8938 0H14.1062C15.1504 0 16 0.849609 16 1.8938V3.11255H0V1.8938C0 0.849609 0.849609 0 1.8938 0ZM13.4634 2.02502H13.9415C14.2003 2.02502 14.4103 1.81519 14.4103 1.55627C14.4103 1.29749 14.2003 1.08752 13.9415 1.08752H13.4634C13.2045 1.08752 12.9946 1.29749 12.9946 1.55627C12.9946 1.81519 13.2045 2.02502 13.4634 2.02502ZM11.7294 2.02502H12.2075C12.4664 2.02502 12.6763 1.81519 12.6763 1.55627C12.6763 1.29749 12.4664 1.08752 12.2075 1.08752H11.7294C11.4705 1.08752 11.2606 1.29749 11.2606 1.55627C11.2606 1.81519 11.4705 2.02502 11.7294 2.02502ZM9.99963 2.02502H10.4778C10.7367 2.02502 10.9465 1.81519 10.9465 1.55627C10.9465 1.29749 10.7367 1.08752 10.4778 1.08752H9.99963C9.74084 1.08752 9.53088 1.29749 9.53088 1.55627C9.53088 1.81519 9.74084 2.02502 9.99963 2.02502Z" fill="#A5B1C5"/>
    <path d="M16 14.1062C16 15.1503 15.1503 16 14.1062 16H1.8938C0.849731 16 0 15.1503 0 14.1062V4.05005H16V14.1062ZM8 5.92505C5.72192 5.92505 3.86841 7.77808 3.86841 10.0563C3.86841 12.3344 5.72192 14.1875 8 14.1875C10.2781 14.1875 12.1316 12.3344 12.1316 10.0563C12.1316 7.77808 10.2781 5.92505 8 5.92505Z" fill="#A5B1C5"/>
    <path d="M7.99982 13.25C6.23859 13.25 4.80573 11.8175 4.80573 10.0563C4.80573 8.29504 6.23859 6.86255 7.99982 6.86255C9.76105 6.86255 11.1939 8.29504 11.1939 10.0563C11.1939 11.8175 9.76105 13.25 7.99982 13.25ZM9.36664 9.35254C9.5495 9.16943 9.5495 8.87256 9.36664 8.68933C9.18353 8.50659 8.88666 8.50659 8.70355 8.68933L7.99982 9.39343L7.29608 8.68933C7.11298 8.50659 6.8161 8.50659 6.633 8.68933C6.45013 8.87256 6.45013 9.16943 6.633 9.35254L7.33698 10.0563L6.633 10.76C6.45013 10.9431 6.45013 11.24 6.633 11.4229C6.72455 11.5144 6.84454 11.5603 6.96454 11.5603C7.08453 11.5603 7.20453 11.5144 7.29608 11.4229L7.99982 10.7191L8.70355 11.4229C8.7951 11.5144 8.9151 11.5603 9.0351 11.5603C9.15509 11.5603 9.27509 11.5144 9.36664 11.4229C9.5495 11.24 9.5495 10.9431 9.36664 10.76L8.66266 10.0563L9.36664 9.35254Z" fill="#A5B1C5"/>
</svg>
