<svg width="20" height="16" viewBox="0 0 20 16" fill="none" xmlns="http://www.w3.org/2000/svg">
<path d="M8.12025 14.888L12.2765 0.628223C12.3517 0.354785 12.2286 0.0950196 11.9689 0.0198243C11.716 -0.055371 11.4562 0.0881837 11.381 0.368457L7.22474 14.6282C7.14955 14.9017 7.27259 15.1546 7.53236 15.2366C7.78529 15.3118 8.04505 15.1683 8.12025 14.888ZM14.0675 12.762L19.3243 8.0042C19.5636 7.79228 19.5568 7.45732 19.3243 7.23857L14.0675 2.4876C13.8488 2.28936 13.5548 2.29619 13.3771 2.49443C13.1994 2.69951 13.2267 2.98662 13.4318 3.17119L18.3468 7.62139L13.4318 12.0716C13.2267 12.263 13.1994 12.5501 13.3771 12.7483C13.5548 12.9534 13.8488 12.9534 14.0675 12.762ZM6.12416 12.762C6.30189 12.5569 6.27455 12.2698 6.06947 12.0784L1.15443 7.63506L6.06947 3.18486C6.27455 2.99346 6.30189 2.70635 6.12416 2.50127C5.94642 2.30303 5.65248 2.30303 5.44056 2.49443L0.176889 7.24541C-0.0623686 7.46416 -0.0555327 7.79912 0.176889 8.01787L5.44056 12.7688C5.65248 12.9671 5.94642 12.9603 6.12416 12.762Z" fill="#000000"/>
</svg>
