<svg width="15" height="18" viewBox="0 0 15 18" fill="none" xmlns="http://www.w3.org/2000/svg">
<path d="M12.8056 0C13.7316 0 14.4722 0.761229 14.4722 1.68889V16.0889C14.4722 17.0165 13.7316 17.7778 12.8056 17.7778H1.91667C0.990595 17.7778 0.25 17.0165 0.25 16.0889V1.68889C0.25 0.761229 0.990595 0 1.91667 0H12.8056ZM12.8056 0.888889H1.91667L1.81915 0.895113C1.43579 0.944406 1.13889 1.28052 1.13889 1.68889V16.0889L1.14495 16.1894C1.19297 16.5842 1.52036 16.8889 1.91667 16.8889H12.8056L12.9031 16.8827C13.2864 16.8334 13.5833 16.4973 13.5833 16.0889V1.68889L13.5773 1.58843C13.5292 1.19359 13.2019 0.888889 12.8056 0.888889ZM7.36111 14.2222C7.85178 14.2222 8.25 14.6196 8.25 15.1111C8.25 15.6027 7.85178 16 7.36111 16C6.87044 16 6.47222 15.6027 6.47222 15.1111C6.47222 14.6196 6.87044 14.2222 7.36111 14.2222ZM12.2497 12.4444C12.4909 12.4444 12.6944 12.6434 12.6944 12.8889L12.6873 12.9669C12.6496 13.1704 12.468 13.3333 12.2497 13.3333H2.47253C2.23133 13.3333 2.02778 13.1343 2.02778 12.8889L2.03494 12.8109C2.0726 12.6073 2.25419 12.4444 2.47253 12.4444H12.2497Z" fill="#000000"/>
</svg>
