<svg width="12" height="16" viewBox="0 0 12 16" fill="none" xmlns="http://www.w3.org/2000/svg">
<path d="M9.99995 0C10.7861 0 11.3611 0.689442 11.3611 1.47778V14.0778C11.3611 14.8661 10.7861 15.5556 9.99995 15.5556H1.83328C1.0471 15.5556 0.472168 14.8661 0.472168 14.0778V1.47778C0.472168 0.689442 1.0471 0 1.83328 0H9.99995ZM9.99995 0.777778H1.83328L1.76014 0.783224C1.47262 0.826355 1.24995 1.12045 1.24995 1.47778V14.0778L1.25449 14.1657C1.29051 14.5112 1.53605 14.7778 1.83328 14.7778H9.99995L10.0731 14.7723C10.3606 14.7292 10.5833 14.4351 10.5833 14.0778V1.47778L10.5787 1.38987C10.5427 1.04439 10.2972 0.777778 9.99995 0.777778ZM5.91661 11.6667C6.34595 11.6667 6.69439 12.0143 6.69439 12.4444C6.69439 12.8746 6.34595 13.2222 5.91661 13.2222C5.48728 13.2222 5.13883 12.8746 5.13883 12.4444C5.13883 12.0143 5.48728 11.6667 5.91661 11.6667ZM7.09068 2.33333C7.3049 2.33333 7.47217 2.50744 7.47217 2.72222L7.46442 2.79879C7.42885 2.973 7.27504 3.11111 7.09068 3.11111H4.74254C4.52832 3.11111 4.36106 2.937 4.36106 2.72222L4.36881 2.64565C4.40438 2.47145 4.55819 2.33333 4.74254 2.33333H7.09068Z" fill="#000000"/>
</svg>
