<svg width="20" height="15" viewBox="0 0 20 15" fill="none" xmlns="http://www.w3.org/2000/svg">
<path d="M17.4609 12.0703C18.6562 12.0703 19.25 11.4922 19.25 10.2812V1.78906C19.25 0.570312 18.6562 0 17.4609 0H1.78906C0.601562 0 0 0.570312 0 1.78906V10.2812C0 11.4922 0.601562 12.0703 1.78906 12.0703H17.4609ZM17.4375 11.0469H1.8125C1.26562 11.0469 1.02344 10.8203 1.02344 10.2578V1.80469C1.02344 1.25 1.26562 1.01562 1.8125 1.01562H17.4375C17.9844 1.01562 18.2344 1.25 18.2344 1.80469V10.2578C18.2344 10.8203 17.9844 11.0469 17.4375 11.0469ZM14.3125 14.8438C14.6641 14.8438 14.9453 14.5547 14.9453 14.1953C14.9453 13.8359 14.6641 13.5469 14.3125 13.5469H4.91406C4.5625 13.5469 4.27344 13.8359 4.27344 14.1953C4.27344 14.5547 4.5625 14.8438 4.91406 14.8438H14.3125Z" fill="#000000"/>
</svg>
