<?xml version="1.0" encoding="iso-8859-1"?>
<!-- Generator: Adobe Illustrator 19.0.0, SVG Export Plug-In . SVG Version: 6.00 Build 0)  -->
<svg version="1.1" id="Capa_1" xmlns="http://www.w3.org/2000/svg" xmlns:xlink="http://www.w3.org/1999/xlink" x="0px" y="0px"
	 viewBox="0 0 512.001 512.001" style="enable-background:new 0 0 512.001 512.001;" xml:space="preserve">
<g>
	<g>
		<path d="M420.295,17.048C410.493,5.746,395.994,0.015,377.2,0.015c-47.229,0-89.612,35.859-128.377,74.61
			c-4.647,4.645-1.264,12.875,5.333,12.875c1.93,0,3.859-0.736,5.332-2.208c34.723-34.711,75.862-70.194,117.714-70.194
			c14.187,0,24.834,3.959,31.644,11.767c12.035,13.798,9.186,35.737,9.158,35.938c-0.588,4.124,2.277,7.943,6.4,8.532
			c4.126,0.587,7.943-2.277,8.532-6.4C433.102,63.77,436.831,36.114,420.295,17.048z"/>
	</g>
</g>
<g>
	<g>
		<path d="M111.787,213.127c-1.984-3.663-6.561-5.025-10.224-3.04c-18.858,10.214-36.455,15.179-53.798,15.179
			c-13.603,0-22.842-5.082-28.243-15.536c-4.28-8.282-4.436-16.942-4.439-17.171c-0.014-4.153-3.386-7.516-7.542-7.516
			c-4.165,0-7.542,3.377-7.542,7.542c0,0.483,0.066,11.968,5.824,23.484c5.538,11.077,17.31,24.281,41.941,24.281
			c19.915,0,39.862-5.561,60.982-16.999C112.409,221.367,113.771,216.791,111.787,213.127z"/>
	</g>
</g>
<g>
	<g>
		<path d="M509.792,362.619l-94.923-94.923c-2.945-2.946-7.721-2.945-10.665,0c-2.945,2.945-2.945,7.721,0,10.665l89.591,89.591
			L367.937,493.808l-148.612-148.61l125.857-125.857l26.845,26.845c2.944,2.945,7.72,2.945,10.665,0
			c2.945-2.945,2.945-7.721,0-10.665l-71.997-71.998c-12.06-12.061-28.095-18.703-45.152-18.703
			c-17.057,0-33.092,6.642-45.152,18.703l-56.885,56.885c-12.06,12.06-18.702,28.095-18.702,45.152
			c0,17.056,6.642,33.092,18.703,45.152l199.096,199.096c2.905,2.905,7.76,2.905,10.665,0l136.522-136.523
			C512.738,370.339,512.738,365.564,509.792,362.619z M174.173,300.045c-19.016-19.016-19.016-49.956,0-68.972l56.885-56.885
			c9.508-9.508,21.997-14.262,34.487-14.262c12.488,0,24.978,4.754,34.486,14.262l34.487,34.487L208.66,334.532L174.173,300.045z"/>
	</g>
</g>
<g>
	<g>
		<path d="M184.526,72.418c-42.435,0-48.771-40.637-48.771-64.86c0-4.165-3.377-7.542-7.542-7.542c-4.165,0-7.542,3.377-7.542,7.542
			c0,24.224-6.336,64.86-48.771,64.86c-4.165,0-7.542,3.377-7.542,7.542c0,4.165,3.377,7.542,7.542,7.542
			c42.435,0,48.771,40.637,48.771,64.86c0,4.165,3.377,7.542,7.542,7.542c4.165,0,7.542-3.377,7.542-7.542
			c0-24.224,6.336-64.86,48.771-64.86c4.165,0,7.542-3.377,7.542-7.542C192.068,75.794,188.691,72.418,184.526,72.418z
			 M128.213,109.691c-5.594-13.363-14.183-23.445-25.353-29.731c11.169-6.286,19.758-16.368,25.353-29.731
			c5.594,13.363,14.183,23.445,25.353,29.731C142.396,86.245,133.807,96.327,128.213,109.691z"/>
	</g>
</g>
<g>
	<g>
		<path d="M120.168,370.071c-14.03,0-32.682-5.056-32.682-48.771c0-4.165-3.377-7.542-7.542-7.542c-4.165,0-7.542,3.377-7.542,7.542
			c0,43.715-18.652,48.771-32.682,48.771c-4.165,0-7.542,3.377-7.542,7.542c0,4.165,3.377,7.542,7.542,7.542
			c14.03,0,32.682,5.056,32.682,48.771c0,4.165,3.377,7.542,7.542,7.542c4.165,0,7.542-3.377,7.542-7.542
			c0-43.715,18.652-48.771,32.682-48.771c4.165,0,7.542-3.377,7.542-7.542C127.71,373.448,124.334,370.071,120.168,370.071z
			 M79.945,393.913c-3.635-7.385-8.351-12.641-13.612-16.301c5.26-3.659,9.976-8.916,13.612-16.301
			c3.635,7.385,8.351,12.641,13.612,16.301C88.296,381.272,83.58,386.528,79.945,393.913z"/>
	</g>
</g>
<g>
	<g>
		<path d="M401.732,112.641c-14.788,0-24.637-6.925-24.637-40.726c0-4.165-3.377-7.542-7.542-7.542
			c-4.165,0-7.542,3.377-7.542,7.542c0,33.801-9.849,40.726-24.637,40.726c-4.165,0-7.542,3.377-7.542,7.542
			c0,4.165,3.377,7.542,7.542,7.542c14.788,0,24.637,6.925,24.637,40.726c0,4.165,3.377,7.542,7.542,7.542
			c4.165,0,7.542-3.377,7.542-7.542c0-33.801,9.849-40.726,24.637-40.726c4.165,0,7.542-3.377,7.542-7.542
			C409.274,116.018,405.898,112.641,401.732,112.641z M369.554,129.762c-2.207-3.832-4.901-7.028-8.07-9.579
			c3.17-2.551,5.864-5.747,8.07-9.579c2.207,3.832,4.901,7.028,8.07,9.579C374.455,122.734,371.761,125.93,369.554,129.762z"/>
	</g>
</g>
<g>
</g>
<g>
</g>
<g>
</g>
<g>
</g>
<g>
</g>
<g>
</g>
<g>
</g>
<g>
</g>
<g>
</g>
<g>
</g>
<g>
</g>
<g>
</g>
<g>
</g>
<g>
</g>
<g>
</g>
</svg>
