<svg width="21" height="16" viewBox="0 0 21 16" fill="none" xmlns="http://www.w3.org/2000/svg">
<path d="M17.9912 15.917C19.7139 15.917 20.584 15.0381 20.584 13.3506V2.5752C20.584 0.878906 19.7139 0 17.9912 0H2.59277C0.878906 0 0 0.870117 0 2.5752V13.3506C0 15.0469 0.878906 15.917 2.59277 15.917H17.9912ZM19.4941 4.99219H1.08984V2.62793C1.08984 1.61719 1.62598 1.08984 2.61035 1.08984H17.9736C18.9404 1.08984 19.4941 1.61719 19.4941 2.62793V4.99219ZM17.9736 14.8271H7.81055V5.97656H19.4941V13.2891C19.4941 14.3086 18.9404 14.8271 17.9736 14.8271ZM6.77344 14.8271H2.61035C1.62598 14.8271 1.08984 14.3086 1.08984 13.2891V5.97656H6.77344V14.8271Z" fill="#000000"/>
</svg>
