<svg width="20" height="17" viewBox="0 0 20 17" fill="none" xmlns="http://www.w3.org/2000/svg">
<path fill-rule="evenodd" clip-rule="evenodd" d="M3.70297 12.9094C3.68758 12.8283 3.61212 12.7647 3.52941 12.7647H1.20192L1.14468 12.7676C1.06359 12.783 1 12.8585 1 12.9412V15.2687L1.00292 15.3259C1.0183 15.407 1.09377 15.4706 1.17647 15.4706H3.50396L3.56121 15.4677C3.6423 15.4523 3.70588 15.3768 3.70588 15.2941V12.9666L3.70297 12.9094ZM4.69978 12.8213C4.63925 12.23 4.13603 11.7647 3.52941 11.7647H1.17647L1.05663 11.7708C0.465303 11.8313 0 12.3346 0 12.9412V15.2941L0.00610352 15.414C0.066636 16.0053 0.569853 16.4706 1.17647 16.4706H3.52941L3.64926 16.4645C4.24058 16.404 4.70588 15.9007 4.70588 15.2941V12.9412L4.69978 12.8213ZM18.9971 12.9094C18.9817 12.8283 18.9062 12.7647 18.8235 12.7647H7.08428L7.02703 12.7676C6.94594 12.783 6.88235 12.8585 6.88235 12.9412V15.2687L6.88527 15.3259C6.90065 15.407 6.97612 15.4706 7.05882 15.4706H18.7981L18.8553 15.4677C18.9364 15.4523 19 15.3768 19 15.2941V12.9666L18.9971 12.9094ZM19.9939 12.8213C19.9334 12.23 19.4301 11.7647 18.8235 11.7647H7.05882L6.93898 11.7708C6.34766 11.8313 5.88235 12.3346 5.88235 12.9412V15.2941L5.88846 15.414C5.94899 16.0053 6.45221 16.4706 7.05882 16.4706H18.8235L18.9434 16.4645C19.5347 16.404 20 15.9007 20 15.2941V12.9412L19.9939 12.8213ZM3.70297 7.02703C3.68758 6.94594 3.61212 6.88235 3.52941 6.88235H1.20192L1.14467 6.88527C1.06359 6.90065 1 6.97612 1 7.05882V9.38632L1.00292 9.44356C1.0183 9.52465 1.09377 9.58824 1.17647 9.58824H3.50396L3.5612 9.58532C3.64229 9.56994 3.70588 9.49447 3.70588 9.41177V7.08427L3.70297 7.02703ZM4.69978 6.93898C4.63925 6.34766 4.13603 5.88235 3.52941 5.88235H1.17647L1.05663 5.88846C0.465303 5.94899 0 6.45221 0 7.05882V9.41177L0.00610352 9.53161C0.066636 10.1229 0.569853 10.5882 1.17647 10.5882H3.52941L3.64926 10.5821C4.24058 10.5216 4.70588 10.0184 4.70588 9.41177V7.05882L4.69978 6.93898ZM18.9971 7.02703C18.9817 6.94594 18.9062 6.88235 18.8235 6.88235H7.08428L7.02703 6.88527C6.94594 6.90065 6.88235 6.97612 6.88235 7.05882V9.38631L6.88527 9.44356C6.90065 9.52465 6.97612 9.58824 7.05882 9.58824H18.7981L18.8553 9.58532C18.9364 9.56994 19 9.49447 19 9.41177V7.08426L18.9971 7.02703ZM19.9939 6.93898C19.9334 6.34766 19.4301 5.88235 18.8235 5.88235H7.05882L6.93898 5.88846C6.34766 5.94899 5.88235 6.45221 5.88235 7.05882V9.41177L5.88846 9.53161C5.94899 10.1229 6.45221 10.5882 7.05882 10.5882H18.8235L18.9434 10.5821C19.5347 10.5216 20 10.0184 20 9.41177V7.05882L19.9939 6.93898ZM3.52941 1H1.20192L1.14468 1.00292C1.06359 1.0183 1 1.09376 1 1.17647V3.50396L1.00292 3.5612C1.0183 3.64229 1.09376 3.70588 1.17647 3.70588H3.50396L3.5612 3.70297C3.6423 3.68758 3.70588 3.61212 3.70588 3.52941V1.20192L3.70297 1.14468C3.68758 1.06359 3.61212 1 3.52941 1ZM4.69978 1.05663C4.63925 0.465303 4.13603 0 3.52941 0H1.17647L1.05663 0.00610352C0.465303 0.066636 0 0.569853 0 1.17647V3.52941L0.00610352 3.64926C0.066636 4.24058 0.569853 4.70588 1.17647 4.70588H3.52941L3.64926 4.69978C4.24058 4.63925 4.70588 4.13603 4.70588 3.52941V1.17647L4.69978 1.05663ZM7.08427 1H18.8235C18.9062 1 18.9817 1.06359 18.9971 1.14468L19 1.2019V3.52941C19 3.61212 18.9364 3.68758 18.8553 3.70297L18.7981 3.70588H7.05882C6.97612 3.70588 6.90065 3.6423 6.88527 3.56121L6.88235 3.50396V1.17647C6.88235 1.09376 6.94594 1.0183 7.02703 1.00292L7.08427 1ZM6.93898 0.00610352L7.05882 0H18.8235C19.4301 0 19.9334 0.465303 19.9939 1.05663L20 1.17647V3.52941C20 4.13603 19.5347 4.63925 18.9434 4.69978L18.8235 4.70588H7.05882C6.45221 4.70588 5.94899 4.24058 5.88846 3.64926L5.88235 3.52941V1.17647C5.88235 0.569853 6.34766 0.066636 6.93898 0.00610352Z" fill="#000000"/>
</svg>
