<svg width="16" height="16" viewBox="0 0 16 16" fill="none" xmlns="http://www.w3.org/2000/svg">
    <path d="M8.00558 6.27578C6.67433 5.2417 4.93865 4.88512 3.32092 5.31302C3.30407 5.20605 3.30407 5.09907 3.30407 4.9921C3.30407 2.22861 5.41048 0 8.00558 0C10.6007 0 12.7239 2.22862 12.7239 4.97427C12.7239 5.08124 12.7239 5.18822 12.7071 5.29519C11.0725 4.8673 9.35368 5.22387 8.00558 6.27578Z" fill="#A5B1C5"/>
    <path d="M10.2468 10.3767C11.7635 9.68138 12.9262 8.27289 13.3812 6.54349C13.4823 6.59697 13.5665 6.65046 13.6508 6.70395C14.7461 7.36362 15.5213 8.45118 15.8415 9.73486C16.1616 11.0185 15.9931 12.3557 15.3696 13.5146C14.7461 14.6735 13.7182 15.4936 12.5049 15.8324C11.2916 16.1711 10.0109 15.9928 8.93245 15.3331C8.84819 15.2797 8.76393 15.2262 8.67968 15.1727C9.85927 13.889 10.4322 12.1239 10.2468 10.3767Z" fill="#A5B1C5"/>
    <path d="M11.3087 6.04453C11.73 6.04453 12.1512 6.09802 12.5557 6.22282C12.2018 7.64914 11.2918 8.82584 10.0785 9.44986C9.96057 8.96847 9.7752 8.52275 9.53928 8.07703C9.28652 7.63131 9.00004 7.23907 8.67987 6.88249C9.45503 6.3298 10.3818 6.04453 11.3087 6.04453Z" fill="#A5B1C5"/>
    <path d="M6.74171 9.78833C6.84282 9.36044 7.01133 8.93254 7.2304 8.54031C7.44947 8.14807 7.71909 7.79149 8.00556 7.47057C8.30888 7.79149 8.5785 8.14807 8.79757 8.54031C9.01663 8.95037 9.18515 9.36044 9.28625 9.78833C8.88182 9.91314 8.46054 9.96662 8.02241 9.96662C7.56743 9.96662 7.14614 9.91314 6.74171 9.78833Z" fill="#A5B1C5"/>
    <path d="M5.93289 9.44986C4.71959 8.82584 3.79277 7.64914 3.45575 6.22282C3.86018 6.09802 4.28146 6.04453 4.70274 6.04453C5.62956 6.04453 6.55638 6.3298 7.33154 6.88249C7.01137 7.23907 6.7249 7.63131 6.47213 8.07703C6.23621 8.52275 6.05085 8.9863 5.93289 9.44986Z" fill="#A5B1C5"/>
    <path d="M6.60695 10.6975C7.06193 10.8045 7.51692 10.8758 8.0056 10.8758C8.49429 10.8758 8.96613 10.8045 9.40426 10.6797C9.48852 12.106 8.98298 13.5501 8.0056 14.5664C7.02823 13.5501 6.52269 12.1417 6.60695 10.6975Z" fill="#A5B1C5"/>
    <path d="M0.16975 9.73486C0.489924 8.45118 1.26508 7.38145 2.36042 6.70395L2.64689 6.54349C3.10187 8.25506 4.24776 9.68138 5.78123 10.3767C5.57901 12.1239 6.15195 13.889 7.33154 15.1549C7.24729 15.2083 7.16303 15.2797 7.07877 15.3331C5.98344 15.9928 4.7196 16.1711 3.5063 15.8324C2.29301 15.4936 1.28193 14.6735 0.641586 13.5146C0.00123787 12.3557 -0.167275 11.0185 0.16975 9.73486Z" fill="#A5B1C5"/>
</svg>
