<svg width="16" height="16" viewBox="0 0 16 16" fill="none" xmlns="http://www.w3.org/2000/svg">
    <path d="M10.5593 15.129C10.1371 15.1276 9.73258 14.9591 9.43412 14.6605C9.13565 14.3619 8.96747 13.9573 8.96628 13.5351V10.5597C8.96747 10.1376 9.13568 9.73306 9.43417 9.43457C9.73266 9.13608 10.1372 8.96787 10.5593 8.96668H13.5347C13.9569 8.96787 14.3615 9.13605 14.6601 9.43451C14.9587 9.73298 15.1272 10.1375 15.1286 10.5597V13.5351C15.1274 13.9574 14.9591 14.3622 14.6604 14.6608C14.3618 14.9595 13.957 15.1278 13.5347 15.129H10.5593ZM2.39358 15.129C1.97122 15.1278 1.56649 14.9595 1.26784 14.6608C0.96918 14.3622 0.80087 13.9574 0.799683 13.5351V10.5597C0.801107 10.1375 0.969522 9.73298 1.26815 9.43451C1.56678 9.13605 1.97137 8.96787 2.39358 8.96668H5.36358C5.78579 8.96787 6.19038 9.13605 6.48901 9.43451C6.78764 9.73298 6.95606 10.1375 6.95748 10.5597V13.5351C6.9563 13.9574 6.78799 14.3622 6.48933 14.6608C6.19067 14.9595 5.78595 15.1278 5.36358 15.129H2.39358ZM10.5593 6.96238C10.1371 6.96095 9.73258 6.79254 9.43412 6.49391C9.13565 6.19528 8.96747 5.79069 8.96628 5.36848V2.39848C8.96628 1.97549 9.13394 1.56975 9.43253 1.27014C9.73112 0.970541 10.1363 0.801508 10.5593 0.800079L13.5347 0.800079C13.957 0.801267 14.3618 0.969576 14.6604 1.26823C14.9591 1.56689 15.1274 1.97162 15.1286 2.39398V5.36398C15.1286 5.78712 14.9608 6.193 14.662 6.49263C14.3632 6.79226 13.9578 6.96119 13.5347 6.96238H10.5593ZM2.39358 6.96238C1.97122 6.96119 1.56649 6.79288 1.26784 6.49423C0.96918 6.19557 0.80087 5.79084 0.799683 5.36848V2.39848C0.799681 1.97534 0.967465 1.56946 1.26625 1.26983C1.56504 0.970199 1.97044 0.801271 2.39358 0.800079L5.36358 0.800079C5.78673 0.800078 6.1926 0.967862 6.49223 1.26665C6.79186 1.56543 6.96079 1.97084 6.96198 2.39398V5.36398C6.96198 5.78712 6.7942 6.193 6.49541 6.49263C6.19663 6.79226 5.79122 6.96119 5.36808 6.96238H2.39358Z" fill="#A5B1C5"/>
</svg>
