<svg width="18" height="15" viewBox="0 0 18 15" xmlns="http://www.w3.org/2000/svg">
<path fill="#000000" d="M12.0059 3.95508C12.9023 3.95508 13.6582 3.35742 13.9043 2.53125H16.8838C17.165 2.53125 17.4111 2.29395 17.4111 1.99512C17.4111 1.6875 17.165 1.4502 16.8838 1.4502H13.9043C13.6758 0.615234 12.9023 0 12.0059 0C11.1006 0 10.3359 0.615234 10.0986 1.4502H0.544922C0.237305 1.4502 0 1.6875 0 1.99512C0 2.29395 0.237305 2.53125 0.544922 2.53125H10.1074C10.3447 3.35742 11.1094 3.95508 12.0059 3.95508ZM12.0059 3.05859C11.3994 3.05859 10.9248 2.5752 10.9248 1.97754C10.9248 1.3623 11.3994 0.896484 12.0059 0.896484C12.6123 0.896484 13.0869 1.3623 13.0869 1.97754C13.0869 2.5752 12.6123 3.05859 12.0059 3.05859ZM5.625 9.35156C6.53027 9.35156 7.29492 8.73633 7.53223 7.91016H16.8662C17.165 7.91016 17.4111 7.66406 17.4111 7.36523C17.4111 7.05762 17.165 6.82031 16.8662 6.82031H7.52344C7.28613 6.00293 6.52148 5.39648 5.625 5.39648C4.72852 5.39648 3.96387 6.00293 3.72656 6.82031H0.518555C0.237305 6.82031 0 7.05762 0 7.36523C0 7.66406 0.237305 7.91016 0.518555 7.91016H3.72656C3.96387 8.73633 4.72852 9.35156 5.625 9.35156ZM5.625 8.44629C5.01855 8.44629 4.54395 7.97168 4.54395 7.36523C4.54395 6.75879 5.01855 6.28418 5.625 6.28418C6.23145 6.28418 6.70605 6.75879 6.70605 7.36523C6.70605 7.97168 6.23145 8.44629 5.625 8.44629ZM12.0059 14.7217C12.9023 14.7217 13.667 14.1064 13.9043 13.2803H16.8838C17.165 13.2803 17.4111 13.043 17.4111 12.7354C17.4111 12.4365 17.165 12.1992 16.8838 12.1992H13.9043C13.667 11.373 12.9023 10.7666 12.0059 10.7666C11.1094 10.7666 10.3447 11.373 10.1074 12.1992H0.544922C0.237305 12.1992 0 12.4365 0 12.7354C0 13.043 0.237305 13.2803 0.544922 13.2803H10.0986C10.3359 14.1064 11.1006 14.7217 12.0059 14.7217ZM12.0059 13.8252C11.3994 13.8252 10.9248 13.3418 10.9248 12.7354C10.9248 12.1289 11.3994 11.6631 12.0059 11.6631C12.6123 11.6631 13.0869 12.1289 13.0869 12.7354C13.0869 13.3418 12.6123 13.8252 12.0059 13.8252Z"/>
</svg>
