<svg width="12" height="12" viewBox="0 0 12 12" fill="none" xmlns="http://www.w3.org/2000/svg">
<path d="M1.80485 0.126787H8.68054C9.02633 0.126787 9.35712 0.268021 9.59627 0.517772L11.5211 2.52785C11.7471 2.76385 11.8732 3.07798 11.8732 3.40473V9.85954C11.8732 10.7825 11.1181 11.5376 10.1784 11.5376H1.80485C0.881914 11.5376 0.126787 10.7825 0.126787 9.85954V1.80485C0.126787 0.881914 0.881914 0.126787 1.80485 0.126787ZM9.41197 0.93932C9.17269 0.688332 8.84106 0.546302 8.49429 0.546302H1.80485C1.11684 0.546302 0.546302 1.11684 0.546302 1.80485V9.85954C0.546302 10.5475 1.11684 11.1181 1.80485 11.1181H10.1784C10.8832 11.1181 11.4369 10.5475 11.4369 9.85954V3.57091C11.4369 3.24513 11.3115 2.93185 11.0867 2.69606L9.41197 0.93932ZM6 6.4363C7.05718 6.4363 7.91299 7.29211 7.91299 8.34929C7.91299 9.40646 7.05718 10.2623 6 10.2623C4.94282 10.2623 4.08701 9.40646 4.08701 8.34929C4.08701 7.29211 4.94282 6.4363 6 6.4363ZM6 6.87259C5.17775 6.87259 4.50653 7.52704 4.50653 8.34929C4.50653 9.17153 5.17775 9.84276 6 9.84276C6.82225 9.84276 7.47669 9.17153 7.47669 8.34929C7.47669 7.52704 6.82225 6.87259 6 6.87259ZM7.78061 1.28465C7.95566 1.28465 8.09758 1.42656 8.09758 1.60162V3.90429C8.09758 4.07934 7.95566 4.22126 7.78061 4.22126H1.80298C1.62793 4.22126 1.48602 4.07934 1.48602 3.90429V1.60162C1.48602 1.42656 1.62793 1.28465 1.80298 1.28465H7.78061ZM7.66128 2.03791C7.66128 1.86286 7.51937 1.72094 7.34431 1.72094H2.23928C2.06422 1.72094 1.92231 1.86286 1.92231 2.03791V3.46799C1.92231 3.64305 2.06422 3.78496 2.23928 3.78496H7.34431C7.51937 3.78496 7.66128 3.64305 7.66128 3.46799V2.03791Z" fill="#000000"/>
<path fill-rule="evenodd" clip-rule="evenodd" d="M1.80485 0H8.68054C9.06091 0 9.42478 0.155358 9.68785 0.430084L11.6127 2.44016C11.8612 2.69976 12 3.04531 12 3.40473V9.85954C12 10.8533 11.1873 11.6644 10.1784 11.6644H1.80485C0.811892 11.6644 0 10.8525 0 9.85954V1.80485C0 0.811892 0.811892 0 1.80485 0ZM8.49429 0.673089H1.80485C1.18687 0.673089 0.673089 1.18687 0.673089 1.80485V9.85954C0.673089 10.4775 1.18687 10.9913 1.80485 10.9913H10.1784C10.812 10.9913 11.3101 10.4786 11.3101 9.85954V3.57091C11.3101 3.27771 11.1973 2.99576 10.995 2.78354L9.3202 1.0268C9.10485 0.800916 8.80638 0.673089 8.49429 0.673089ZM6 6.30951C7.1272 6.30951 8.03978 7.22208 8.03978 8.34929C8.03978 9.47649 7.1272 10.3891 6 10.3891C4.8728 10.3891 3.96022 9.47649 3.96022 8.34929C3.96022 7.22208 4.8728 6.30951 6 6.30951ZM6 6.99938C5.2459 6.99938 4.63331 7.59892 4.63331 8.34929C4.63331 9.10151 5.24777 9.71597 6 9.71597C6.75037 9.71597 7.34991 9.10339 7.34991 8.34929C7.34991 7.59706 6.75223 6.99938 6 6.99938ZM8.22436 1.60162V3.90429C8.22436 4.14937 8.02569 4.34804 7.78061 4.34804H1.80298C1.5579 4.34804 1.35923 4.14937 1.35923 3.90429V1.60162C1.35923 1.35654 1.5579 1.15786 1.80298 1.15786H7.78061C8.02569 1.15786 8.22436 1.35654 8.22436 1.60162ZM7.34431 1.84773H2.23928C2.13425 1.84773 2.0491 1.93288 2.0491 2.03791V3.46799C2.0491 3.57303 2.13425 3.65817 2.23928 3.65817H7.34431C7.44935 3.65817 7.53449 3.57303 7.53449 3.46799V2.03791C7.53449 1.93288 7.44935 1.84773 7.34431 1.84773ZM8.68054 0.126787H1.80485C0.881914 0.126787 0.126787 0.881914 0.126787 1.80485V9.85954C0.126787 10.7825 0.881914 11.5376 1.80485 11.5376H10.1784C11.1181 11.5376 11.8732 10.7825 11.8732 9.85954V3.40473C11.8732 3.07798 11.7471 2.76385 11.5211 2.52785L9.59627 0.517772C9.35712 0.268021 9.02633 0.126787 8.68054 0.126787ZM8.49429 0.546302C8.84106 0.546302 9.17269 0.688332 9.41197 0.93932L11.0867 2.69606C11.3115 2.93185 11.4369 3.24513 11.4369 3.57091V9.85954C11.4369 10.5475 10.8832 11.1181 10.1784 11.1181H1.80485C1.11684 11.1181 0.546302 10.5475 0.546302 9.85954V1.80485C0.546302 1.11684 1.11684 0.546302 1.80485 0.546302H8.49429ZM7.91299 8.34929C7.91299 7.29211 7.05718 6.4363 6 6.4363C4.94282 6.4363 4.08701 7.29211 4.08701 8.34929C4.08701 9.40646 4.94282 10.2623 6 10.2623C7.05718 10.2623 7.91299 9.40646 7.91299 8.34929ZM4.50653 8.34929C4.50653 7.52704 5.17775 6.87259 6 6.87259C6.82225 6.87259 7.47669 7.52704 7.47669 8.34929C7.47669 9.17153 6.82225 9.84276 6 9.84276C5.17775 9.84276 4.50653 9.17153 4.50653 8.34929ZM8.09758 1.60162C8.09758 1.42656 7.95566 1.28465 7.78061 1.28465H1.80298C1.62793 1.28465 1.48602 1.42656 1.48602 1.60162V3.90429C1.48602 4.07934 1.62793 4.22126 1.80298 4.22126H7.78061C7.95566 4.22126 8.09758 4.07934 8.09758 3.90429V1.60162ZM7.34431 1.72094C7.51937 1.72094 7.66128 1.86286 7.66128 2.03791V3.46799C7.66128 3.64305 7.51937 3.78496 7.34431 3.78496H2.23928C2.06422 3.78496 1.92231 3.64305 1.92231 3.46799V2.03791C1.92231 1.86286 2.06422 1.72094 2.23928 1.72094H7.34431Z" fill="#000000"/>
</svg>
