<svg width="22" height="16" viewBox="0 0 22 16" fill="none" xmlns="http://www.w3.org/2000/svg">
<path d="M20.5576 5.61621C20.9092 5.61621 21.1025 5.41406 21.1025 5.07129V2.5752C21.1025 0.878906 20.2236 0 18.5098 0H3.11133C1.39746 0 0.518555 0.870117 0.518555 2.5752V5.07129C0.518555 5.41406 0.720703 5.61621 1.06348 5.61621C1.39746 5.61621 1.59961 5.41406 1.59961 5.07129V2.62793C1.59961 1.61719 2.13574 1.08984 3.12891 1.08984H18.4834C19.459 1.08984 20.0127 1.61719 20.0127 2.62793V5.07129C20.0127 5.41406 20.2148 5.61621 20.5576 5.61621ZM10.7842 11.6982C11.1357 11.6982 11.3291 11.4609 11.3291 11.0918V5.10645H13.6406C13.9043 5.10645 14.0977 4.92188 14.0977 4.64941C14.0977 4.36816 13.9043 4.19238 13.6406 4.19238H7.98047C7.7168 4.19238 7.52344 4.36816 7.52344 4.64941C7.52344 4.92188 7.7168 5.10645 7.98047 5.10645H10.2393V11.0918C10.2393 11.4521 10.4414 11.6982 10.7842 11.6982ZM1.06348 8.85059C1.64355 8.85059 2.11816 8.38477 2.11816 7.7959C2.11816 7.21582 1.64355 6.74121 1.06348 6.74121C0.483398 6.74121 0 7.21582 0 7.7959C0 8.38477 0.483398 8.85059 1.06348 8.85059ZM20.5576 8.85059C21.1289 8.85059 21.6123 8.38477 21.6123 7.7959C21.6123 7.21582 21.1289 6.74121 20.5576 6.74121C19.9688 6.74121 19.4941 7.20703 19.4941 7.7959C19.4941 8.38477 19.9688 8.85059 20.5576 8.85059ZM18.5098 15.917C20.2236 15.917 21.1025 15.0381 21.1025 13.3506V10.5645C21.1025 10.2217 20.9004 10.0195 20.5576 10.0195C20.2148 10.0195 20.0127 10.2217 20.0127 10.5645V13.2891C20.0127 14.3086 19.459 14.8271 18.4834 14.8271H3.12891C2.13574 14.8271 1.59961 14.3086 1.59961 13.2891V10.5645C1.59961 10.2217 1.39746 10.0195 1.06348 10.0195C0.720703 10.0195 0.518555 10.2217 0.518555 10.5645V13.3506C0.518555 15.0469 1.39746 15.917 3.11133 15.917H18.5098Z" fill="#000000"/>
</svg>
