<svg width="722" height="188" fill="none" xmlns="http://www.w3.org/2000/svg"><path d="M78.734 7.267a18.024 18.024 0 00-17.412 13.37L33.08 126.304l34.787 9.318L96.145 29.949c3.062-11.446-5.563-22.682-17.411-22.682z" fill="url(#paint0_linear)"/><path d="M147.601 180.944a18.025 18.025 0 0017.414-13.37l28.241-105.668-34.787-9.373-28.28 105.729c-3.062 11.446 5.564 22.682 17.412 22.682z" fill="url(#paint1_linear)"/><path d="M184.443 7.267a18 18 0 00-17.386 13.336l-19.1 71.187a28.458 28.458 0 01-10.171 15.252 28.378 28.378 0 01-17.351 5.865H23.539A18.056 18.056 0 006.1 126.285c-3.077 11.47 5.565 22.736 17.44 22.736h96.951a64.499 64.499 0 0039.293-13.417 64.677 64.677 0 0023.016-34.607l19.033-71.073c3.061-11.432-5.554-22.657-17.389-22.657z" fill="url(#paint2_linear)"/><path d="M220.539 61.67c3.107-11.468-5.529-22.755-17.411-22.755h-97.41a64.687 64.687 0 00-39.344 13.416 64.913 64.913 0 00-23.11 34.613l-19.09 71.314c-3.072 11.48 5.578 22.751 17.462 22.751 8.19 0 15.356-5.505 17.466-13.418l19.061-71.462A28.665 28.665 0 0188.4 80.879a28.565 28.565 0 0117.374-5.887h97.355c8.146 0 15.281-5.46 17.411-13.322z" fill="url(#paint3_linear)"/><path d="M79.49 7A17.968 17.968 0 0062.13 20.328l-28.154 105.34 34.68 9.289L96.845 29.612C99.899 18.202 91.301 7 79.489 7z" fill="url(#paint4_linear)"/><path d="M148.143 180.138a17.968 17.968 0 0017.359-13.329l28.154-105.34-34.679-9.343-28.193 105.401c-3.052 11.41 5.547 22.611 17.359 22.611z" fill="url(#paint5_linear)"/><path d="M184.87 7a17.945 17.945 0 00-17.332 13.295l-19.041 70.966a28.362 28.362 0 01-10.139 15.205 28.287 28.287 0 01-17.297 5.846H24.466A18.001 18.001 0 007.08 125.649c-3.067 11.434 5.548 22.665 17.386 22.665h96.65a64.298 64.298 0 0039.171-13.375 64.488 64.488 0 0022.945-34.499l18.973-70.852C205.257 18.19 196.669 7 184.87 7z" fill="url(#paint6_linear)"/><path d="M220.854 61.234c3.098-11.432-5.512-22.684-17.356-22.684H106.39a64.487 64.487 0 00-39.222 13.374A64.71 64.71 0 0044.13 86.429L25.1 157.522c-3.064 11.444 5.56 22.68 17.407 22.68a18.02 18.02 0 0017.412-13.376l19.002-71.24a28.576 28.576 0 0110.203-15.203 28.478 28.478 0 0117.321-5.868h97.053c8.12 0 15.233-5.443 17.356-13.28z" fill="url(#paint7_linear)"/><g clip-path="url(#clip0)" fill="#2E0A20"><path d="M359.165.179h25.173v186.92h-25.173v-82.576h-77.497v82.576h-25.173V.179h25.173v79.158h77.497V.179zM460.396 55.41c11.508 0 21.397 1.98 29.489 5.937 8.091 3.958 14.564 9.355 19.419 16.371 4.854 7.017 8.271 15.292 10.069 25.007 1.798 9.535 2.337 19.969 1.438 31.303h-97.815c0 6.297.899 11.334 2.877 15.292 1.978 3.958 4.675 7.016 8.092 9.175 3.416 2.159 7.192 3.598 11.507 4.498 4.316.72 8.811 1.259 13.666 1.259 3.416 0 6.832-.18 10.428-.36 3.596-.179 6.833-.899 9.89-1.799 3.056-.899 5.754-2.518 8.091-4.497 2.338-1.979 4.136-4.678 4.855-8.096h25.712c-1.798 7.196-4.495 13.133-8.091 17.991-3.596 4.857-8.091 8.815-13.126 11.873-5.035 3.059-10.788 5.217-17.082 6.657-6.293 1.439-13.126 2.159-20.138 2.159-21.577 0-37.22-5.578-47.109-16.911-9.89-11.155-14.745-27.706-14.745-49.474 0-9.715 1.259-18.53 3.956-26.626 2.517-8.096 6.473-15.112 11.688-21.049 5.214-5.937 11.687-10.434 19.419-13.852 7.552-3.239 16.722-4.858 27.51-4.858zm35.782 55.051c-.18-2.159-.54-5.037-1.259-8.636-.719-3.598-2.337-7.196-4.675-10.614-2.337-3.418-5.934-6.476-10.608-8.995-4.675-2.519-10.969-3.778-19.06-3.778-7.372 0-13.306 1.08-18.161 3.238-4.854 2.159-8.63 4.858-11.687 8.096-2.877 3.238-5.035 6.656-6.113 10.434-1.079 3.778-1.798 7.196-1.798 10.435h73.361v-.18zM534.836 0h25.173v187.1h-25.173V0zM681.559 120.895l39.558 66.385h-28.41l-25.173-42.457h-.179l-25.173 42.457h-28.41l39.198-66.385v-.359l-39.198-66.025h28.41l25.173 42.277h.179l25.173-42.277h28.41l-39.558 66.025v.359zM604.242 51.813h-26.791V187.1h26.791V51.813zM602.444 9.715c-1.259-1.26-2.877-2.16-4.855-2.519-1.798-.36-4.136-.54-6.653-.54-2.517 0-4.855.18-6.833.54-1.978.36-3.776 1.26-5.034 2.519-1.259 1.259-2.158 3.058-2.877 5.217-.54 2.159-.899 5.037-.899 8.455 0 3.958.359 7.017 1.079 9.355.719 2.34 1.798 4.138 3.236 5.398 1.439 1.259 3.057 1.978 5.035 2.338 1.798.36 3.955.36 6.113.36 2.158 0 4.316-.18 6.114-.36 1.977-.36 3.596-1.08 5.034-2.339 1.259-1.259 2.338-3.058 3.057-5.397.719-2.338 1.079-5.397 1.079-9.355 0-3.418-.36-6.296-.899-8.455a9.701 9.701 0 00-2.697-5.217z"/></g><defs><linearGradient id="paint0_linear" x1="56.541" y1="140.206" x2="107.453" y2="27.361" gradientUnits="userSpaceOnUse"><stop offset=".703" stop-color="#001D84"/><stop offset=".969" stop-color="#3C43EB"/></linearGradient><linearGradient id="paint1_linear" x1="147.583" y1="185.53" x2="198.531" y2="72.653" gradientUnits="userSpaceOnUse"><stop stop-color="#3C43EB"/><stop offset=".583" stop-color="#001D84"/></linearGradient><linearGradient id="paint2_linear" x1="0" y1="129.338" x2="50.418" y2="-33.949" gradientUnits="userSpaceOnUse"><stop stop-color="#00156B"/><stop offset=".281" stop-color="#0F4FF3"/><stop offset=".651" stop-color="#0F42F5"/><stop offset="1" stop-color="#3C77EB"/></linearGradient><linearGradient id="paint3_linear" x1="29.399" y1="57.182" x2="245.318" y2="156.213" gradientUnits="userSpaceOnUse"><stop stop-color="#FCFCFC"/><stop offset=".375" stop-color="#1047F5"/><stop offset=".974" stop-color="#3A75EC"/></linearGradient><linearGradient id="paint4_linear" x1="57.366" y1="139.527" x2="108.119" y2="27.032" gradientUnits="userSpaceOnUse"><stop offset=".703" stop-color="#8E1A37"/><stop offset=".969" stop-color="#CF2952"/></linearGradient><linearGradient id="paint5_linear" x1="148.125" y1="184.71" x2="198.915" y2="72.183" gradientUnits="userSpaceOnUse"><stop stop-color="#E6315E"/><stop offset=".583" stop-color="#87213A"/></linearGradient><linearGradient id="paint6_linear" x1="1" y1="128.692" x2="51.261" y2="-34.088" gradientUnits="userSpaceOnUse"><stop stop-color="#4F0F1F"/><stop offset=".281" stop-color="#DA345D"/><stop offset=".651" stop-color="#AD2748"/><stop offset="1" stop-color="#DA6A86"/></linearGradient><linearGradient id="paint7_linear" x1="30.308" y1="56.76" x2="245.556" y2="155.484" gradientUnits="userSpaceOnUse"><stop stop-color="#FCFCFC"/><stop offset=".375" stop-color="#CA2E54"/><stop offset=".974" stop-color="#F76A8D"/></linearGradient><clipPath id="clip0"><path fill="#fff" transform="translate(256.495)" d="M0 0h464.621v188H0z"/></clipPath></defs></svg>