<svg width="101" height="27" viewBox="0 0 101 27" fill="none" xmlns="http://www.w3.org/2000/svg">
<path d="M11.7906 0C10.5683 0 9.49846 0.821429 9.18284 2.00235L4.95312 17.8281L10.1632 19.2236L14.3982 3.39709C14.8569 1.6829 13.5651 0 11.7906 0Z" fill="url(#paint0_linear)"/>
<path d="M22.1063 26.0111C23.3288 26.0111 24.3987 25.1897 24.7143 24.0087L28.944 8.18308L23.7339 6.7793L19.4985 22.6141C19.04 24.3283 20.3318 26.0111 22.1063 26.0111Z" fill="url(#paint1_linear)"/>
<path d="M27.6236 0C26.4037 0 25.3358 0.819149 25.0197 1.99738L22.1592 12.6588C21.9171 13.5678 21.3814 14.3711 20.6358 14.9432C19.8902 15.5153 18.9765 15.8241 18.0373 15.8215H3.52541C2.30169 15.8215 1.23046 16.6432 0.913407 17.8251C0.452611 19.5429 1.74691 21.2302 3.52541 21.2302H18.0455C20.1745 21.2275 22.2431 20.5212 23.9303 19.2208C25.6176 17.9203 26.8293 16.0985 27.3774 14.0378L30.2279 3.39342C30.6864 1.6812 29.3961 0 27.6236 0Z" fill="url(#paint2_linear)"/>
<path d="M33.0282 8.14824C33.4935 6.4307 32.2001 4.74023 30.4206 4.74023H15.8317C13.7006 4.74325 11.6298 5.44935 9.93922 6.74947C8.24863 8.04959 7.03232 9.87137 6.4782 11.9334L3.61914 22.614C3.1589 24.3333 4.4545 26.0213 6.23435 26.0213C7.46082 26.0213 8.53409 25.1968 8.85018 24.0117L11.7049 13.309C11.9518 12.3997 12.4905 11.5971 13.2378 11.025C13.9851 10.4529 14.8995 10.1431 15.84 10.1434H30.4206C31.6406 10.1434 32.7092 9.32576 33.0282 8.14824Z" fill="url(#paint3_linear)"/>
<path d="M54.2585 1.02344H57.5093V25.1619H54.2585V14.4982H44.2508V25.1619H41V1.02344H44.2508V11.2457H54.2585V1.02344Z" fill="#252525"/>
<path d="M67.3305 8.15527C68.8166 8.15527 70.0936 8.41083 71.1385 8.92194C72.1834 9.43305 73.0193 10.13 73.6463 11.0361C74.2732 11.9421 74.7144 13.0108 74.9466 14.2654C75.1788 15.4967 75.2484 16.8442 75.1323 18.3078H62.5008C62.5008 19.121 62.6169 19.7715 62.8723 20.2826C63.1277 20.7937 63.476 21.1886 63.9172 21.4674C64.3584 21.7462 64.846 21.9321 65.4032 22.0482C65.9605 22.1412 66.541 22.2109 67.1679 22.2109C67.6091 22.2109 68.0503 22.1876 68.5147 22.1644C68.9791 22.1412 69.397 22.0482 69.7918 21.9321C70.1865 21.8159 70.5348 21.6068 70.8367 21.3513C71.1385 21.0957 71.3707 20.7472 71.4636 20.3058H74.784C74.5518 21.2351 74.2035 22.0018 73.7392 22.629C73.2748 23.2563 72.6943 23.7674 72.0441 24.1624C71.394 24.5573 70.6509 24.8361 69.8382 25.022C69.0255 25.2078 68.1432 25.3008 67.2376 25.3008C64.4512 25.3008 62.4311 24.5806 61.154 23.1169C59.8769 21.6765 59.25 19.5391 59.25 16.728C59.25 15.4735 59.4125 14.3351 59.7608 13.2896C60.0859 12.2442 60.5967 11.3381 61.2701 10.5714C61.9435 9.80477 62.7794 9.22396 63.7779 8.78255C64.7531 8.36436 65.9373 8.15527 67.3305 8.15527ZM71.9512 15.2644C71.928 14.9856 71.8816 14.6139 71.7887 14.1492C71.6958 13.6846 71.4868 13.2199 71.185 12.7785C70.8831 12.3371 70.4187 11.9421 69.815 11.6169C69.2113 11.2916 68.3986 11.129 67.3537 11.129C66.4017 11.129 65.6354 11.2684 65.0085 11.5472C64.3816 11.826 63.894 12.1745 63.4992 12.5927C63.1277 13.0108 62.8491 13.4523 62.7097 13.9401C62.5704 14.428 62.4776 14.8694 62.4776 15.2876H71.9512V15.2644Z" fill="#252525"/>
<path d="M76.9453 1H80.1961V25.1617H76.9453V1Z" fill="#252525"/>
<path d="M95.8906 16.6128L100.999 25.1855H97.3302L94.0794 19.7027H94.0562L90.8054 25.1855H87.1367L92.1986 16.6128V16.5663L87.1367 8.04004H90.8054L94.0562 13.4996H94.0794L97.3302 8.04004H100.999L95.8906 16.5663V16.6128Z" fill="#252525"/>
<path d="M85.909 7.69043H82.4492V25.1612H85.909V7.69043Z" fill="#252525"/>
<path d="M85.6742 2.2553C85.5116 2.09268 85.3026 1.97651 85.0472 1.93005C84.815 1.88358 84.5132 1.86035 84.1881 1.86035C83.863 1.86035 83.5612 1.88358 83.3057 1.93005C83.0503 1.97651 82.8181 2.09268 82.6556 2.2553C82.493 2.41793 82.3769 2.65025 82.2841 2.92904C82.2144 3.20783 82.168 3.57955 82.168 4.02096C82.168 4.53207 82.2144 4.92702 82.3073 5.22905C82.4002 5.53107 82.5395 5.76339 82.7252 5.92602C82.911 6.08864 83.12 6.18157 83.3754 6.22804C83.6076 6.2745 83.8862 6.2745 84.1649 6.2745C84.4435 6.2745 84.7221 6.25127 84.9543 6.22804C85.2098 6.18157 85.4187 6.08864 85.6045 5.92602C85.767 5.76339 85.9064 5.53107 85.9992 5.22905C86.0921 4.92702 86.1385 4.53207 86.1385 4.02096C86.1385 3.57955 86.0921 3.20783 86.0224 2.92904C85.976 2.65025 85.8367 2.41793 85.6742 2.2553Z" fill="#252525"/>
<defs>
<linearGradient id="paint0_linear" x1="8.46694" y1="19.91" x2="16.0918" y2="3.00948" gradientUnits="userSpaceOnUse">
<stop offset="0.703125" stop-color="#001D84"/>
<stop offset="0.96875" stop-color="#3C43EB"/>
</linearGradient>
<linearGradient id="paint1_linear" x1="22.1037" y1="26.6979" x2="29.734" y2="9.79252" gradientUnits="userSpaceOnUse">
<stop stop-color="#3C43EB"/>
<stop offset="0.583333" stop-color="#001D84"/>
</linearGradient>
<linearGradient id="paint2_linear" x1="8.351e-07" y1="18.2824" x2="7.55095" y2="-6.17281" gradientUnits="userSpaceOnUse">
<stop stop-color="#00156B"/>
<stop offset="0.28125" stop-color="#0F4FF3"/>
<stop offset="0.651042" stop-color="#0F42F5"/>
<stop offset="1" stop-color="#3C77EB"/>
</linearGradient>
<linearGradient id="paint3_linear" x1="4.40164" y1="7.47597" x2="36.7393" y2="22.3077" gradientUnits="userSpaceOnUse">
<stop stop-color="#FCFCFC"/>
<stop offset="0.375328" stop-color="#1047F5"/>
<stop offset="0.973958" stop-color="#3A75EC"/>
</linearGradient>
</defs>
</svg>
