<svg width="722" height="188" fill="none" xmlns="http://www.w3.org/2000/svg"><path d="M78.89 7.547a18.04 18.04 0 00-17.43 13.382L33.193 126.698l34.82 9.326L96.318 30.251C99.383 18.794 90.749 7.547 78.89 7.547z" fill="url(#paint0_linear)"/><path d="M147.822 181.389c8.17 0 15.321-5.49 17.43-13.383l28.269-105.768-34.821-9.382-28.307 105.829c-3.064 11.457 5.57 22.704 17.429 22.704z" fill="url(#paint1_linear)"/><path d="M184.699 7.547a18.019 18.019 0 00-17.403 13.35L148.178 92.15a28.479 28.479 0 01-10.181 15.267 28.39 28.39 0 01-17.367 5.87H23.643a18.074 18.074 0 00-17.457 13.392c-3.08 11.48 5.57 22.757 17.457 22.757h97.042a64.563 64.563 0 0039.331-13.43 64.748 64.748 0 0023.038-34.639l19.05-71.14c3.064-11.444-5.559-22.68-17.405-22.68z" fill="url(#paint2_linear)"/><path d="M220.829 62.002c3.11-11.479-5.534-22.777-17.427-22.777h-97.503a64.748 64.748 0 00-39.381 13.428A64.974 64.974 0 0043.387 87.3l-19.108 71.382c-3.076 11.491 5.583 22.772 17.478 22.772 8.197 0 15.37-5.51 17.483-13.43l19.079-71.53a28.692 28.692 0 0110.244-15.265 28.593 28.593 0 0117.392-5.892h97.447a18.055 18.055 0 0017.427-13.334z" fill="url(#paint3_linear)"/><g clip-path="url(#clip0)" fill="#2E200A"><path d="M359.165.179h25.173v186.92h-25.173v-82.576h-77.497v82.576h-25.173V.179h25.173v79.158h77.497V.179zM460.396 55.41c11.508 0 21.397 1.98 29.489 5.938 8.091 3.957 14.564 9.355 19.419 16.37 4.854 7.017 8.271 15.293 10.069 25.007 1.798 9.535 2.337 19.97 1.438 31.304h-97.815c0 6.296.899 11.334 2.877 15.292 1.978 3.958 4.675 7.016 8.092 9.175 3.416 2.159 7.192 3.598 11.507 4.497 4.316.72 8.811 1.26 13.666 1.26 3.416 0 6.832-.18 10.428-.36 3.596-.18 6.833-.9 9.89-1.799 3.056-.9 5.754-2.519 8.091-4.498 2.338-1.979 4.136-4.677 4.855-8.095h25.712c-1.798 7.196-4.495 13.133-8.091 17.99-3.596 4.857-8.091 8.815-13.126 11.874-5.035 3.058-10.788 5.217-17.082 6.656-6.293 1.439-13.126 2.159-20.138 2.159-21.577 0-37.22-5.577-47.109-16.911-9.89-11.154-14.745-27.705-14.745-49.474 0-9.715 1.259-18.53 3.956-26.626 2.517-8.095 6.473-15.111 11.688-21.048 5.214-5.937 11.687-10.435 19.419-13.853 7.552-3.238 16.722-4.857 27.51-4.857zm35.782 55.051c-.18-2.158-.54-5.037-1.259-8.635-.719-3.598-2.337-7.196-4.675-10.614-2.337-3.419-5.934-6.477-10.608-8.996-4.675-2.518-10.969-3.778-19.06-3.778-7.372 0-13.306 1.08-18.161 3.239-4.854 2.158-8.63 4.857-11.687 8.095-2.877 3.239-5.035 6.657-6.113 10.435-1.079 3.778-1.798 7.196-1.798 10.434h73.361v-.18zM534.836 0h25.173v187.1h-25.173V0zM681.559 120.896l39.558 66.384h-28.41l-25.173-42.457h-.179l-25.173 42.457h-28.41l39.198-66.384v-.36l-39.198-66.025h28.41l25.173 42.277h.179l25.173-42.277h28.41l-39.558 66.025v.36zM604.242 51.813h-26.791V187.1h26.791V51.813zM602.444 9.715c-1.259-1.26-2.877-2.159-4.855-2.519-1.798-.36-4.136-.54-6.653-.54-2.517 0-4.855.18-6.833.54-1.978.36-3.776 1.26-5.034 2.519-1.259 1.26-2.158 3.058-2.877 5.217-.54 2.159-.899 5.037-.899 8.456 0 3.957.359 7.016 1.079 9.355.719 2.338 1.798 4.137 3.236 5.397 1.439 1.26 3.057 1.979 5.035 2.338 1.798.36 3.955.36 6.113.36 2.158 0 4.316-.18 6.114-.36 1.977-.36 3.596-1.079 5.034-2.338 1.259-1.26 2.338-3.059 3.057-5.397.719-2.34 1.079-5.398 1.079-9.355 0-3.419-.36-6.297-.899-8.456a9.7 9.7 0 00-2.697-5.217z"/></g><defs><linearGradient id="paint0_linear" x1="56.676" y1="140.612" x2="107.636" y2="27.66" gradientUnits="userSpaceOnUse"><stop offset=".703" stop-color="#973316"/><stop offset=".969" stop-color="#DA512A"/></linearGradient><linearGradient id="paint1_linear" x1="147.805" y1="185.979" x2="198.801" y2="72.995" gradientUnits="userSpaceOnUse"><stop stop-color="#C5431D"/><stop offset=".583" stop-color="#912B0E"/></linearGradient><linearGradient id="paint2_linear" x1=".081" y1="129.734" x2="50.547" y2="-33.708" gradientUnits="userSpaceOnUse"><stop stop-color="#591502"/><stop offset=".281" stop-color="#DA512A"/><stop offset=".651" stop-color="#E43908"/><stop offset="1" stop-color="#F48161"/></linearGradient><linearGradient id="paint3_linear" x1="29.509" y1="57.509" x2="245.632" y2="156.634" gradientUnits="userSpaceOnUse"><stop stop-color="#FCFCFC"/><stop offset=".375" stop-color="#DA5129"/><stop offset=".974" stop-color="#FA9477"/></linearGradient><clipPath id="clip0"><path fill="#fff" transform="translate(256.495)" d="M0 0h464.621v188H0z"/></clipPath></defs></svg>