<svg width="722" height="188" fill="none" xmlns="http://www.w3.org/2000/svg"><path d="M78.49 8A17.968 17.968 0 0061.13 21.328l-28.154 105.34 34.68 9.289L95.845 30.612C98.899 19.202 90.301 8 78.489 8z" fill="url(#paint0_linear)"/><path d="M147.143 181.138a17.968 17.968 0 0017.359-13.329l28.154-105.34-34.679-9.343-28.193 105.401c-3.052 11.41 5.547 22.611 17.359 22.611z" fill="url(#paint1_linear)"/><path d="M183.87 8a17.945 17.945 0 00-17.332 13.295l-19.041 70.966a28.362 28.362 0 01-10.139 15.205 28.287 28.287 0 01-17.297 5.846H23.466A18.001 18.001 0 006.08 126.649c-3.067 11.434 5.548 22.665 17.386 22.665h96.65a64.298 64.298 0 0039.171-13.375 64.488 64.488 0 0022.945-34.499l18.973-70.852C204.257 19.19 195.669 8 183.87 8z" fill="url(#paint2_linear)"/><path d="M219.854 62.234c3.098-11.432-5.512-22.684-17.356-22.684H105.39a64.487 64.487 0 00-39.222 13.374A64.71 64.71 0 0043.13 87.429L24.1 158.522c-3.064 11.444 5.56 22.68 17.407 22.68a18.02 18.02 0 0017.412-13.376l19.002-71.24a28.576 28.576 0 0110.203-15.203 28.477 28.477 0 0117.321-5.868h97.053c8.12 0 15.233-5.443 17.356-13.28z" fill="url(#paint3_linear)"/><g clip-path="url(#clip0)" fill="#2E240A"><path d="M359.165.179h25.173v186.92h-25.173v-82.576h-77.497v82.576h-25.173V.179h25.173v79.158h77.497V.179zM460.396 55.41c11.508 0 21.397 1.98 29.489 5.937 8.091 3.958 14.564 9.355 19.419 16.371 4.854 7.017 8.271 15.292 10.069 25.007 1.798 9.535 2.337 19.969 1.438 31.303h-97.815c0 6.297.899 11.334 2.877 15.292 1.978 3.958 4.675 7.016 8.092 9.175 3.416 2.159 7.192 3.598 11.507 4.498 4.316.72 8.811 1.259 13.666 1.259 3.416 0 6.832-.18 10.428-.36 3.596-.179 6.833-.899 9.89-1.799 3.056-.899 5.754-2.518 8.091-4.497 2.338-1.979 4.136-4.678 4.855-8.096h25.712c-1.798 7.196-4.495 13.133-8.091 17.991-3.596 4.857-8.091 8.815-13.126 11.873-5.035 3.059-10.788 5.217-17.082 6.657-6.293 1.439-13.126 2.159-20.138 2.159-21.577 0-37.22-5.578-47.109-16.911-9.89-11.155-14.745-27.706-14.745-49.474 0-9.715 1.259-18.53 3.956-26.626 2.517-8.096 6.473-15.112 11.688-21.049 5.214-5.937 11.687-10.434 19.419-13.852 7.552-3.239 16.722-4.858 27.51-4.858zm35.782 55.051c-.18-2.159-.54-5.037-1.259-8.636-.719-3.598-2.337-7.196-4.675-10.614-2.337-3.418-5.934-6.476-10.608-8.995-4.675-2.519-10.969-3.778-19.06-3.778-7.372 0-13.306 1.08-18.161 3.238-4.854 2.159-8.63 4.858-11.687 8.096-2.877 3.238-5.035 6.656-6.113 10.434-1.079 3.778-1.798 7.196-1.798 10.435h73.361v-.18zM534.836 0h25.173v187.1h-25.173V0zM681.559 120.895l39.558 66.385h-28.41l-25.173-42.457h-.179l-25.173 42.457h-28.41l39.198-66.385v-.359l-39.198-66.025h28.41l25.173 42.277h.179l25.173-42.277h28.41l-39.558 66.025v.359zM604.242 51.813h-26.791V187.1h26.791V51.813zM602.444 9.715c-1.259-1.26-2.877-2.16-4.855-2.519-1.798-.36-4.136-.54-6.653-.54-2.517 0-4.855.18-6.833.54-1.978.36-3.776 1.26-5.034 2.519-1.259 1.259-2.158 3.058-2.877 5.217-.54 2.159-.899 5.037-.899 8.455 0 3.958.359 7.017 1.079 9.355.719 2.34 1.798 4.138 3.236 5.398 1.439 1.259 3.057 1.978 5.035 2.338 1.798.36 3.955.36 6.113.36 2.158 0 4.316-.18 6.114-.36 1.977-.36 3.596-1.08 5.034-2.339 1.259-1.259 2.338-3.058 3.057-5.397.719-2.338 1.079-5.397 1.079-9.355 0-3.418-.36-6.296-.899-8.455a9.701 9.701 0 00-2.697-5.217z"/></g><defs><linearGradient id="paint0_linear" x1="56.366" y1="140.527" x2="107.119" y2="28.032" gradientUnits="userSpaceOnUse"><stop offset=".703" stop-color="#BB6A15"/><stop offset=".969" stop-color="#E89339"/></linearGradient><linearGradient id="paint1_linear" x1="147.125" y1="185.71" x2="197.915" y2="73.183" gradientUnits="userSpaceOnUse"><stop stop-color="#D8842C"/><stop offset=".583" stop-color="#8A4F10"/></linearGradient><linearGradient id="paint2_linear" x1="0" y1="129.692" x2="50.261" y2="-33.088" gradientUnits="userSpaceOnUse"><stop stop-color="#834C11"/><stop offset=".281" stop-color="#DC8D37"/><stop offset=".651" stop-color="#CC7C28"/><stop offset="1" stop-color="#F9AC5A"/></linearGradient><linearGradient id="paint3_linear" x1="29.308" y1="57.76" x2="244.556" y2="156.484" gradientUnits="userSpaceOnUse"><stop stop-color="#FCFCFC"/><stop offset=".375" stop-color="#CF8331"/><stop offset=".974" stop-color="#EBAA66"/></linearGradient><clipPath id="clip0"><path fill="#fff" transform="translate(256.495)" d="M0 0h464.621v188H0z"/></clipPath></defs></svg>