<svg width="144" height="100" fill="none" xmlns="http://www.w3.org/2000/svg"><rect x="1.25" y="1.25" width="141.5" height="97.5" rx="3.75" fill="#F8FBFF" stroke="#CDD0DF" stroke-width="1.5"/><path d="M2 5c0-1.65685 1.34315-3 3-3h134c1.657 0 3 1.34315 3 3v27H2V5z" fill="#EBF1F9"/><path opacity=".4" d="M20 18h104" stroke="#6B719B" stroke-width=".5"/><rect opacity=".5" x="65" y="6" width="14" height="7" rx="1" fill="#6B719B"/><rect x="20" y="8" width="24" height="3" rx="1" fill="#6B719B"/><path fill="#6B719B" d="M109 8h3v3h-3zM115 8h3v3h-3zM121 8h3v3h-3z"/><rect x="47" y="23" width="10" height="4" rx="1" fill="#6B719B"/><rect x="60" y="23" width="10" height="4" rx="1" fill="#6B719B"/><rect x="73" y="23" width="10" height="4" rx="1" fill="#6B719B"/><rect x="86" y="23" width="10" height="4" rx="1" fill="#6B719B"/></svg>