<svg width="144" height="100" fill="none" xmlns="http://www.w3.org/2000/svg"><rect x="1.25" y="1.25" width="141.5" height="97.5" rx="3.75" fill="#F0F0F0" stroke="#B2B4B8" stroke-width="1.5"/><path d="M2 5a3 3 0 013-3h134a3 3 0 013 3v27H2V5z" fill="#F9F8F8"/><path opacity=".4" d="M20 18h104" stroke="#8D9097" stroke-width=".5"/><rect x="65" y="6" width="14" height="7" rx="1" fill="#B2B4B8"/><rect x="20" y="8" width="24" height="3" rx="1" fill="#8D9097"/><path fill="#8D9097" d="M109 8h3v3h-3zM115 8h3v3h-3zM121 8h3v3h-3z"/><rect x="47" y="23" width="10" height="4" rx="1" fill="#8D9097"/><rect x="60" y="23" width="10" height="4" rx="1" fill="#8D9097"/><rect x="73" y="23" width="10" height="4" rx="1" fill="#8D9097"/><rect x="86" y="23" width="10" height="4" rx="1" fill="#8D9097"/></svg>