<svg width="722" height="188" fill="none" xmlns="http://www.w3.org/2000/svg"><path d="M78.49 7A17.968 17.968 0 0061.13 20.328l-28.154 105.34 34.68 9.289L95.845 29.612C98.899 18.202 90.301 7 78.489 7z" fill="url(#paint0_linear)"/><path d="M147.143 180.138a17.968 17.968 0 0017.359-13.329l28.154-105.34-34.679-9.343-28.193 105.401c-3.052 11.41 5.547 22.611 17.359 22.611z" fill="url(#paint1_linear)"/><path d="M183.87 7a17.945 17.945 0 00-17.332 13.295l-19.041 70.966a28.362 28.362 0 01-10.139 15.205 28.287 28.287 0 01-17.297 5.846H23.466A18.001 18.001 0 006.08 125.649c-3.067 11.434 5.548 22.665 17.386 22.665h96.65a64.298 64.298 0 0039.171-13.375 64.488 64.488 0 0022.945-34.499l18.973-70.852C204.257 18.19 195.669 7 183.87 7z" fill="url(#paint2_linear)"/><path d="M219.854 61.234c3.098-11.432-5.512-22.684-17.356-22.684H105.39a64.487 64.487 0 00-39.222 13.374A64.71 64.71 0 0043.13 86.429L24.1 157.522c-3.064 11.444 5.56 22.68 17.407 22.68a18.02 18.02 0 0017.412-13.376l19.002-71.24a28.576 28.576 0 0110.203-15.203 28.477 28.477 0 0117.321-5.868h97.053c8.12 0 15.233-5.443 17.356-13.28z" fill="url(#paint3_linear)"/><g clip-path="url(#clip0)" fill="#160A2E"><path d="M359.165.179h25.173v186.92h-25.173v-82.576h-77.497v82.576h-25.173V.179h25.173v79.158h77.497V.179zM460.396 55.41c11.508 0 21.397 1.98 29.489 5.938 8.091 3.957 14.564 9.355 19.419 16.37 4.854 7.017 8.271 15.293 10.069 25.007 1.798 9.535 2.337 19.97 1.438 31.304h-97.815c0 6.296.899 11.334 2.877 15.292 1.978 3.958 4.675 7.016 8.092 9.175 3.416 2.159 7.192 3.598 11.507 4.497 4.316.72 8.811 1.26 13.666 1.26 3.416 0 6.832-.18 10.428-.36 3.596-.18 6.833-.9 9.89-1.799 3.056-.9 5.754-2.519 8.091-4.498 2.338-1.979 4.136-4.677 4.855-8.095h25.712c-1.798 7.196-4.495 13.133-8.091 17.99-3.596 4.857-8.091 8.815-13.126 11.874-5.035 3.058-10.788 5.217-17.082 6.656-6.293 1.439-13.126 2.159-20.138 2.159-21.577 0-37.22-5.577-47.109-16.911-9.89-11.154-14.745-27.705-14.745-49.474 0-9.715 1.259-18.53 3.956-26.626 2.517-8.095 6.473-15.111 11.688-21.048 5.214-5.937 11.687-10.435 19.419-13.853 7.552-3.238 16.722-4.857 27.51-4.857zm35.782 55.051c-.18-2.158-.54-5.037-1.259-8.635-.719-3.598-2.337-7.196-4.675-10.614-2.337-3.419-5.934-6.477-10.608-8.996-4.675-2.518-10.969-3.778-19.06-3.778-7.372 0-13.306 1.08-18.161 3.239-4.854 2.158-8.63 4.857-11.687 8.095-2.877 3.239-5.035 6.657-6.113 10.435-1.079 3.778-1.798 7.196-1.798 10.434h73.361v-.18zM534.836 0h25.173v187.1h-25.173V0zM681.559 120.896l39.558 66.385h-28.41l-25.173-42.458h-.179l-25.173 42.458h-28.41l39.198-66.385v-.36l-39.198-66.025h28.41l25.173 42.278h.179l25.173-42.278h28.41l-39.558 66.025v.36zM604.242 51.813h-26.791V187.1h26.791V51.813zM602.444 9.715c-1.259-1.26-2.877-2.16-4.855-2.519-1.798-.36-4.136-.54-6.653-.54-2.517 0-4.855.18-6.833.54-1.978.36-3.776 1.26-5.034 2.519-1.259 1.259-2.158 3.058-2.877 5.217-.54 2.159-.899 5.037-.899 8.455 0 3.958.359 7.017 1.079 9.355.719 2.34 1.798 4.138 3.236 5.398 1.439 1.259 3.057 1.978 5.035 2.338 1.798.36 3.955.36 6.113.36 2.158 0 4.316-.18 6.114-.36 1.977-.36 3.596-1.08 5.034-2.339 1.259-1.259 2.338-3.058 3.057-5.397.719-2.338 1.079-5.397 1.079-9.355 0-3.418-.36-6.296-.899-8.455a9.701 9.701 0 00-2.697-5.217z"/></g><defs><linearGradient id="paint0_linear" x1="56.366" y1="139.527" x2="107.119" y2="27.032" gradientUnits="userSpaceOnUse"><stop offset=".703" stop-color="#211D69"/><stop offset=".969" stop-color="#4743A6"/></linearGradient><linearGradient id="paint1_linear" x1="147.125" y1="184.71" x2="197.915" y2="72.183" gradientUnits="userSpaceOnUse"><stop stop-color="#514BBC"/><stop offset=".583" stop-color="#201994"/></linearGradient><linearGradient id="paint2_linear" x1="0" y1="128.692" x2="50.261" y2="-34.088" gradientUnits="userSpaceOnUse"><stop stop-color="#211C71"/><stop offset=".281" stop-color="#5853BC"/><stop offset=".651" stop-color="#3833A8"/><stop offset="1" stop-color="#5A52CA"/></linearGradient><linearGradient id="paint3_linear" x1="29.308" y1="56.76" x2="244.556" y2="155.484" gradientUnits="userSpaceOnUse"><stop stop-color="#FCFCFC"/><stop offset=".375" stop-color="#4843A6"/><stop offset=".974" stop-color="#8680F4"/></linearGradient><clipPath id="clip0"><path fill="#fff" transform="translate(256.495)" d="M0 0h464.621v188H0z"/></clipPath></defs></svg>