<svg width="144" height="100" fill="none" xmlns="http://www.w3.org/2000/svg"><rect x="1.25" y="1.25" width="141.5" height="97.5" rx="3.75" fill="#F0F0F0" stroke="#B2B4B8" stroke-width="1.5"/><path d="M2 5a3 3 0 013-3h134a3 3 0 013 3v6H2V5z" fill="#8D9097"/><path fill="#F9F8F8" d="M2 11h140v24H2z"/><rect x="20" y="19" width="14" height="8" rx="1" fill="#B2B4B8"/><g opacity=".7" fill="#fff"><path d="M20 5h4v3h-4zM27 5h4v3h-4zM34 5h4v3h-4z"/></g><rect opacity=".7" x="97" y="5" width="27" height="3" rx="1" fill="#fff"/><rect x="79" y="21" width="9" height="4" rx="1" fill="#8D9097"/><rect x="91" y="21" width="9" height="4" rx="1" fill="#8D9097"/><rect x="103" y="21" width="9" height="4" rx="1" fill="#8D9097"/><rect x="115" y="21" width="9" height="4" rx="1" fill="#8D9097"/></svg>